<svg xmlns="http://www.w3.org/2000/svg" id="family-doing-diwali-shopping" viewBox="0 0 700 550">
  <path d="m227.68093 228.10821-.00847.00826v-.00826ZM255.978 254.729l-35.75683-1.8985c4.04878-15.48169 7.33182-24.38679 7.44719-24.71194a26.47677 26.47677 0 0 0 12.00985 7.60448C251.88732 239.78225 254.43612 248.34126 255.978 254.729ZM268.4599 240.21233l2.94739.58738a63.88574 63.88574 0 0 0 18.76467 7.78277c3.33547.75518 14.5482 1.54191 18.19833 1.458a2.53852 2.53852 0 0 0 .451 1.83556l-19.35211 4.6361-15.2929-.81817c.0105-.13636.0105-.27266.0105-.409a25.9314 25.9314 0 0 0-1.0279-7.37375C271.68 242.94993 269.05771 240.34863 268.4599 240.21233ZM303.49177 467.61c-9.93 4.17-32.28 5.35-46.55 5.35s-8.33-5.35-24.4-6.53c-16.07-1.2-26.73-3.57-30.31-8.33-3.57-4.75 0-22.59 2.69-99.3.35-10.13 1-19.87 1.88-29.14.05-.47.09-.94.14-1.41 2.86.3 5.73.61 8.58.93q3.6.39 7.23.78c6.56.69 13.1 1.42 19.66 2.16a136.05784 136.05784 0 0 0 .88 20.68l.34 3.13c.13 1.04.32 2.07.47 3.11l.98 6.22c.34 2.07.84 4.11 1.25 6.16.43006 2.05.84 4.11 1.33 6.14 1.07 4.06 2.12 8.11 3.28 12.13 1.31 3.98 2.56 7.97 3.92 11.92-.93-4.08-1.98-8.12-2.97-12.17l-2.7-12.21c-.74-4.1-1.57-8.19-2.25-12.29l-.9-6.17c-.15-1.03-.33-2.06-.45-3.09l-.31-3.1c-.21-2.07-.48-4.13-.64-6.2l-.37994-6.22c-.1-2.61-.17005-5.23-.15-7.85.35.04.71.08 1.06.12l6.35.72 16.06 1.82 11.2 1.23c1.96.21 3.92.43 5.87.63.36005.04.72.07 1.05.11 1.43.15 2.83.3 4.24.43 3.61-1.8 7.22-3.55 10.82-5.37.62994-.3 1.26-.62 1.9-.94l3.77-1.89c0 .26.01.52.02.79a249.64285 249.64285 0 0 0 2.24 25.87C332.50178 424.21 313.42176 463.45 303.49177 467.61Z"></path>
  <path d="M307.699 250.911c-.021-.20973-.03149-.41952-.05243-.61881a.81415.81415 0 0 0 .1678-.021 10.07349 10.07349 0 0 0 1.007-.23073 122.04019 122.04019 0 0 1 2.23415 27.19782c-.06293 2.03486-.16786 4.12215-.34616 6.26187-.51394-5.07661-.97546-10.16379-1.458-15.2404C308.685 262.48033 308.18152 256.69042 307.699 250.911ZM210.62769 125.77174a89.41132 89.41132 0 0 0-1.01224 14.38961c.04039 1.19492.09393 2.38981.23944 3.56769a23.49145 23.49145 0 0 0 .60092 3.48215 10.806 10.806 0 0 0 3.2103 5.85 6.62594 6.62594 0 0 0 2.98669 1.32714l.84244.113.90091.04273c.60145.02246 1.20444.06613 1.806.07354a35.37007 35.37007 0 0 0 7.19118-.43506 15.38583 15.38583 0 0 0 6.56138-2.69757 15.6984 15.6984 0 0 0 4.35958-5.56262l.08924-.17218.22744-.05328a13.62473 13.62473 0 0 0 5.15269-2.287 5.27635 5.27635 0 0 0 1.62865-2.01294 4.04466 4.04466 0 0 0 .06787-2.46576c-.46051-1.62091-1.60832-3.51089-2.941-4.1246a2.24678 2.24678 0 0 0-2.07733.29275 6.49573 6.49573 0 0 0-1.81531 1.80725l-1.08234 1.54993-.50189-1.8147a40.258 40.258 0 0 0-2.95094-7.95678 7.8065 7.8065 0 0 0-1.11386-1.61039 2.19885 2.19885 0 0 0-.61083-.48471 8.78892 8.78892 0 0 0-.93147-.27877c-1.4339-.46192-2.76355-.959-4.143-1.35947a28.81167 28.81167 0 0 0-4.16629-.93738 21.60068 21.60068 0 0 0-4.24912-.28525A20.92787 20.92787 0 0 0 210.62769 125.77174Zm-.13245-.09867a18.90168 18.90168 0 0 1 8.33945-2.87317 24.96882 24.96882 0 0 1 8.84817.79258c1.43321.35315 2.85448.81649 4.20856 1.19149a8.4418 8.4418 0 0 1 1.16524.31659 3.51722 3.51722 0 0 1 1.12953.81006 9.368 9.368 0 0 1 1.41023 1.9372 36.47879 36.47879 0 0 1 3.16676 8.36041l-1.58406-.26474a8.042 8.042 0 0 1 2.41323-2.29309 4.31522 4.31522 0 0 1 .80442-.3804 3.21363 3.21363 0 0 1 .90241-.22275 3.61918 3.61918 0 0 1 1.876.26758 6.232 6.232 0 0 1 2.46232 2.32748c.25012.46652.53083.907.74982 1.39618a9.686 9.686 0 0 1 .53564 1.54279 5.47041 5.47041 0 0 1-.2541 3.34994 6.55507 6.55507 0 0 1-2.14145 2.47864 14.50723 14.50723 0 0 1-5.74705 2.16684l.31637-.22525a23.9872 23.9872 0 0 1-2.101 3.04822 16.64063 16.64063 0 0 1-2.69848 2.54962 17.792 17.792 0 0 1-6.8 2.761 45.78316 45.78316 0 0 1-7.28689.836c-.611.03223-1.221.02979-1.83225.04508l-.91806.01468-.96806-.06574a7.628 7.628 0 0 1-3.668-1.38763 8.65292 8.65292 0 0 1-2.49087-3.01676 14.05812 14.05812 0 0 1-1.29691-3.5784 30.44073 30.44073 0 0 1-.6988-7.3894A60.10714 60.10714 0 0 1 210.49524 125.67307Z"></path>
  <path d="M224.03893 126.71339a7.27589 7.27589 0 0 1 3.242.17013 6.14565 6.14565 0 0 1 1.52626.63333 2.83054 2.83054 0 0 1 1.17764 1.17853 7.11107 7.11107 0 0 0-1.44554-.59241c-.48683-.14944-.97586-.2969-1.47673-.42352A25.3393 25.3393 0 0 1 224.03893 126.71339ZM209.809 129.8607a5.65878 5.65878 0 0 1 2.57172-2.11622 5.28073 5.28073 0 0 1 1.66922-.38388 3.38694 3.38694 0 0 1 1.6647.34378 12.20615 12.20615 0 0 0-1.56929.29355 14.23321 14.23321 0 0 0-1.447.50837C211.74564 128.90342 210.83122 129.392 209.809 129.8607ZM215.02091 144.89807h7.28378S220.075 151.7359 215.02091 144.89807ZM217.25064 131.07377a8.432 8.432 0 0 1-.09842 3.47583 4.24116 4.24116 0 0 1-.80733 1.66183 3.6668 3.6668 0 0 1-.351.3479l-.26136.25257a2.74811 2.74811 0 0 0-.38765.61691 2.4273 2.4273 0 0 0 .2509 2.72305c.71595.63147 1.97814.5412 3.067.28675-.2556.12808-.51863.25119-.78777.365a7.57 7.57 0 0 1-.85744.22607 2.45728 2.45728 0 0 1-1.82359-.374 2.37151 2.37151 0 0 1-.915-1.70648 3.72486 3.72486 0 0 1 .3174-1.86826 3.54561 3.54561 0 0 1 .53929-.81091l.62569-.57584a4.09265 4.09265 0 0 0 .77876-1.33825A14.57463 14.57463 0 0 0 217.25064 131.07377ZM212.76178 153.20335c-1.5817 1.66534-3.26294 3.23126-4.96571 4.77551-1.70333 1.55228-3.46521 3.01056-5.30652 4.43518a12.19982 12.19982 0 0 1-6.74137 2.36017l-6.88931.0921a.75759.75759 0 0 1-.454-.14276l-.01137-.00818-5.9648-4.28448.72128.12219a1.17342 1.17342 0 0 0-.252.15072.51235.51235 0 0 0-.154.2013.93155.93155 0 0 0 .04107.65231 9.4986 9.4986 0 0 0 .45624 1.0806 4.791 4.791 0 0 0 .53748.86728l.03807.04364a.80213.80213 0 0 1-.81253 1.302c-1.19226-.32025-2.39968-.62036-3.59575-.91107-.59671-.143-1.19975-.283-1.77712-.38672-.13838-.02387-.28895-.04761-.39975-.05823-.23793.00989.15128-.05035.03249-.0307a2.49343 2.49343 0 0 0-.47327.49341 6.371 6.371 0 0 0-1.23529 3.05731 2.97593 2.97593 0 0 0 1.10916 2.76166c1.75152 1.35626 4.45856 1.35559 6.86829 1.7207 1.23134.13886 2.46784.24481 3.70659.273a15.0515 15.0515 0 0 0 3.70021-.2641 13.01524 13.01524 0 0 1-3.69276.64826c-1.25293.07831-2.50867.07788-3.76241.04388-1.25742-.025-2.50069-.11847-3.7587-.23572a7.76758 7.76758 0 0 1-3.77525-1.24951 4.15923 4.15923 0 0 1-1.36908-1.67023 4.51515 4.51515 0 0 1-.366-2.12115 7.45143 7.45143 0 0 1 1.40143-3.83752 3.73634 3.73634 0 0 1 .81221-.85181 1.17687 1.17687 0 0 1 .18918-.11255.93814.93814 0 0 1 .28874-.10388 1.49778 1.49778 0 0 1 .198-.02735l.08334.00226.15437.0076c.19945.01392.35752.03671.52664.06046.65194.09942 1.26654.22628 1.88514.35669 1.23314.26391 2.44273.57068 3.661.88086l-.7744 1.34558a5.6623 5.6623 0 0 1-.84378-1.27039 11.09831 11.09831 0 0 1-.54768-1.2641 2.53943 2.53943 0 0 1-.01959-1.839 2.16078 2.16078 0 0 1 .5959-.81625 2.47052 2.47052 0 0 1 .84929-.47946.76674.76674 0 0 1 .69729.1044l.02434.01785 5.92676 4.33691-.465-.15081 6.85883.082a11.12661 11.12661 0 0 0 6.13217-1.86511c1.87149-1.26169 3.70685-2.64743 5.53268-4.0178C209.20618 156.09806 210.98412 154.6551 212.76178 153.20335ZM216.65671 154.987a18.39292 18.39292 0 0 0 4.96394 2.13067 17.20284 17.20284 0 0 0 5.22708.58509 18.33717 18.33717 0 0 0 5.12874-.99347l.62839-.19431.60623-.26272 1.21458-.52365c.79169-.39057 1.56493-.83158 2.35357-1.24521l-.0833.06268a8.697 8.697 0 0 0 1.45242-1.69183 7.56918 7.56918 0 0 0 .93663-2.07026 6.04111 6.04111 0 0 0 .19475-2.29968 8.697 8.697 0 0 0-.57416-2.34747 7.14323 7.14323 0 0 1 1.11456 2.24567 6.05753 6.05753 0 0 1 .18856 2.58117 7.36292 7.36292 0 0 1-.79239 2.50608 8.40811 8.40811 0 0 1-1.573 2.16177l-.03458.03363-.049.0293c-.808.48242-1.5917 1.01553-2.42918 1.45694l-1.29709.59069-.64961.29444-.6791.22677-1.36671.43061c-.46626.10638-.94055.18454-1.41019.27682l-.70648.12854-.71792.05606a13.39659 13.39659 0 0 1-1.43624.05188 14.85818 14.85818 0 0 1-5.57289-1.12912A13.14209 13.14209 0 0 1 216.65671 154.987Z"></path>
  <path d="M188.85876 164.07371a14.4737 14.4737 0 0 1 1.96851 4.20379 14.998 14.998 0 0 1 .62335 4.68763 12.60408 12.60408 0 0 1-1.00746 4.70221 13.51134 13.51134 0 0 1-2.67134 4.00518l-.01654.01819a.73243.73243 0 0 1-1.273-.45044 35.84068 35.84068 0 0 1 .046-4.67346 26.756 26.756 0 0 1 .69526-4.6037c.0884 1.55109.18437 3.07782.30187 4.60089.12159 1.51789.2661 3.04731.43942 4.53211l-1.28934-.43213a14.49879 14.49879 0 0 0 2.24887-3.64105 13.15772 13.15772 0 0 0 1.0486-4.14771 19.83252 19.83252 0 0 0-.11-4.38922A26.60311 26.60311 0 0 0 188.85876 164.07371ZM204.91281 169.12779a18.78231 18.78231 0 0 1 3.40314 2.11029 20.85759 20.85759 0 0 1 2.96432 2.7243 16.221 16.221 0 0 1 2.29447 3.33337 10.28489 10.28489 0 0 1 1.07586 3.87256 16.62011 16.62011 0 0 0-1.6306-3.56305 25.84886 25.84886 0 0 0-2.35684-3.09484c-.855-.9823-1.80182-1.88428-2.75361-2.78791C206.94479 170.83177 205.94283 169.97471 204.91281 169.12779Z"></path>
  <path d="M187.22574,181.08573c5.26895-.08563,10.53616.00647,15.80264.214q3.95169.13358,7.898.45313c2.63255.21911,5.26254.43414,7.90093.8454.65858.0888,1.324.238,1.9844.36212.64867.14123,1.36994.38995,1.978.57019a16.24347,16.24347,0,0,0,1.82017.51544c.61833.16083,1.25789.277,1.89563.39722,2.55788.45263,5.15457.829,7.75722,1.15332,5.20961.62793,10.45306,1.12811,15.70206,1.38617l-.04492.00177a48.09533,48.09533,0,0,0,6.938-1.2359,11.74284,11.74284,0,0,0,1.63437-.55506,1.912,1.912,0,0,0,.36352-.186.89018.89018,0,0,0,.287-.21155,2.02778,2.02778,0,0,0,.27631-.32587c.10049-.12793.20822-.23016.31228-.34637a32.613,32.613,0,0,1,2.707-2.35608c.93726-.73572,1.88913-1.44647,2.90558-2.09815.25534-.16143.5188-.31829.79834-.46527a3.06676,3.06676,0,0,1,.49283-.203.99535.99535,0,0,1,.71191.04627,1.346,1.346,0,0,1,.74125,1.01324,3.1782,3.1782,0,0,1,.02352,1.04309,11.11131,11.11131,0,0,1-1.3142,3.47119,34.492,34.492,0,0,1-1.92267,3.05542l.11975-.34613a.9425.9425,0,0,0,.429.632,2.22747,2.22747,0,0,0,1.03324.31494,6.30329,6.30329,0,0,0,1.27463-.02148l1.42819-.11725c1.891-.13312,3.753-.23712,5.585-.47486a20.8673,20.8673,0,0,0,5.27215-1.30377,12.92511,12.92511,0,0,1,1.4216-.52124,3.16335,3.16335,0,0,1,1.88678-.06476,1.80892,1.80892,0,0,1,.59589.35566,1.62858,1.62858,0,0,1,.3931.608,2.13912,2.13912,0,0,1,.08636,1.12958,3.47923,3.47923,0,0,1-.27832.89318,2.49935,2.49935,0,0,1-.63461.8841l-.43686-1.52014a5.1467,5.1467,0,0,1,1.54175.44238,2.65982,2.65982,0,0,1,1.36789,1.33227,2.54116,2.54116,0,0,1-.09467,1.96466,7.74515,7.74515,0,0,1-.39706.71033l-.45526.60419.13159-.92468a5.164,5.164,0,0,1,.37143,2.01922,4.56092,4.56092,0,0,1-.48325,2.00208,5.02089,5.02089,0,0,1-1.273,1.58087,7.92259,7.92259,0,0,1-.79556.56573c-.27707.15436-.55957.29212-.84015.43592l-.51791-1.65558a3.33074,3.33074,0,0,1,.87893-.02826,1.80605,1.80605,0,0,1,1.09824.47473,1.50338,1.50338,0,0,1,.38946,1.34467,2.91128,2.91128,0,0,1-.30639.84308,5.54226,5.54226,0,0,1-.39676.63995,6.83539,6.83539,0,0,1-.51258.58777,9.41715,9.41715,0,0,1-1.08087.8916,23.72991,23.72991,0,0,1-4.64084,2.4638,25.52026,25.52026,0,0,1-5.00119,1.527,8.3635,8.3635,0,0,1-2.76245.12421l-2.521-.38171-10.01252-1.61475-10.015-1.71881.01823-.16419,10.1129,1.06812L266.97,204.38511l2.512.30609a7.15843,7.15843,0,0,0,2.2832-.18805,24.093,24.093,0,0,0,4.65457-1.573,25.013,25.013,0,0,0,4.26739-2.37963,7.79265,7.79265,0,0,0,.86893-.73218c.13336-.12494.20679-.25012.31879-.37018a3.92554,3.92554,0,0,0,.26654-.44061,1.33525,1.33525,0,0,0,.1322-.34192c.00855-.09491-.01562.07416.09476.16919.09637.07946.05417.02649-.05982.02289a1.71365,1.71365,0,0,0-.38662.0169l-5.29834.90589L281.404,197.219l.64936-.348a6.3681,6.3681,0,0,0,.56875-.41693,3.252,3.252,0,0,0,.83048-1.01459,2.79055,2.79055,0,0,0,.30072-1.243,3.556,3.556,0,0,0-.21683-1.27429l-.19113-.4986.32275-.42645.34-.44922c.09064-.14831.174-.29712.249-.43841a.82886.82886,0,0,0,.07959-.59046.96537.96537,0,0,0-.50082-.43811,3.52775,3.52775,0,0,0-.97983-.301l-.43689-1.52021a1.96365,1.96365,0,0,0,.16388-.27063,1.8105,1.8105,0,0,0,.151-.44891.5589.5589,0,0,0,.00726-.26221c-.00119-.02173.05228.05237.01651.0177a1.82884,1.82884,0,0,0-.89328.08527,4.03064,4.03064,0,0,0-.59591.19226l-.6409.243a22.39581,22.39581,0,0,1-5.69544,1.32068c-1.91128.22461-3.81976.28552-5.69238.35809l-1.39285.07477a7.62033,7.62033,0,0,1-1.54734-.0227,3.47631,3.47631,0,0,1-1.61584-.57959,2.13193,2.13193,0,0,1-.934-1.72583l-.00369-.17969.12353-.16681c.69244-.93506,1.379-1.87653,1.97244-2.86481a10.23938,10.23938,0,0,0,1.33216-3.069c.10629-.49829.00955-1.055-.18625-1.11389a.1547.1547,0,0,0-.14792-.01068,2.6126,2.6126,0,0,0-.32773.12573c-.24829.11926-.498.255-.74789.40027-.99637.58746-1.96723,1.25641-2.9148,1.94537a23.8546,23.8546,0,0,0-2.69406,2.22846c-.09409.10266-.20273.20367-.2854.30743a2.881,2.881,0,0,1-.3006.34448,1.39418,1.39418,0,0,1-.41995.312,2.37405,2.37405,0,0,1-.42645.21173,12.238,12.238,0,0,1-1.726.56189c-1.15826.29785-2.32589.51367-3.49562.71051-1.16778.21118-2.33606.39727-3.51462.55664l-.02105.00287-.02425-.0011c-5.26416-.2287-10.528-.40668-15.7924-.8172-2.63146-.21259-5.26627-.44367-7.89145-.90466-.65688-.11432-1.31374-.22407-1.972-.38447a17.60608,17.60608,0,0,1-1.98192-.53369c-.65487-.18445-1.18319-.36169-1.8202-.49548-.63263-.11694-1.24829-.27771-1.89266-.37329-5.13226-.85657-10.398-1.17908-15.62736-1.63965l-15.74214-1.14368Z"></path>
  <path d="M245.67349 142.21754a15.92525 15.92525 0 0 1 9.40225-.94507 27.80928 27.80928 0 0 1 4.6409 1.15842c1.51227.4783 2.9889 1.03067 4.4596 1.59878a172.0974 172.0974 0 0 1 17.08111 7.98511l.01023.00522a.31631.31631 0 0 1 .13772.4256l-.00018.00039a25.86887 25.86887 0 0 0-1.93536 4.92469 14.41129 14.41129 0 0 0-.45865 2.588 6.52061 6.52061 0 0 0 .21844 2.5307.30551.30551 0 0 1-.30069.40194l-.007-.00036c-1.94918-.07871-3.89227-.17694-5.83752-.31034-1.944-.13681-3.89239-.26736-5.83264-.50573-1.93949-.24466-3.88443-.48682-5.81632-.90094-.96618-.21649-1.93267-.4281-2.89691-.73987a10.92889 10.92889 0 0 1-2.89676-1.30109l1.27478-.98733c1.21631 2.61361 2.64508 5.22632 4.0972 7.77868 1.44946 2.56641 2.99246 5.08295 4.54584 7.5965 1.57367 2.50128 3.22217 4.95654 4.87015 7.41779 1.66555 2.44909 3.37579 4.87024 5.078 7.30731l-.12881.10339c-1.98749-2.2113-3.918-4.4779-5.7526-6.822-1.86053-2.32532-3.61-4.73767-5.30914-7.18713q-2.5545-3.67145-4.82758-7.53717a75.0957 75.0957 0 0 1-4.11195-8.01093.83228.83228 0 0 1 1.22-1.0238l.05487.03638a9.6697 9.6697 0 0 0 2.38363 1.1127c.878.30966 1.80667.53817 2.73023.76962 1.86239.43024 3.7594.79111 5.66476 1.10458 3.8136.62152 7.66525 1.15253 11.5264 1.48947l-.30756.4014a7.06744 7.06744 0 0 1-.19073-2.77307 14.92926 14.92926 0 0 1 .53033-2.66791 26.56657 26.56657 0 0 1 .82276-2.57458c.3168-.84445.63717-1.67972 1.0224-2.50711l.14764.43091c-2.87213-1.25177-5.77322-2.44648-8.67541-3.62387l-8.66391-3.59992a63.46337 63.46337 0 0 0-8.76432-3.06619 22.74735 22.74735 0 0 0-4.567-.5643 13.62281 13.62281 0 0 0-4.56395.62866ZM270.61548 193.308c2.12347-.585 4.2214-1.2586 6.26959-2.02478 1.02075-.38983 2.027-.80933 2.99219-1.27789a8.80873 8.80873 0 0 0 2.48822-1.65625l1.17563 1.16015a9.935 9.935 0 0 1-3.18753 1.63959c-1.071.36328-2.14621.65955-3.22525.92359C274.9678 192.58494 272.79724 192.9918 270.61548 193.308ZM270.61548 196.67729a20.93837 20.93837 0 0 0 3.54376-.61811 33.5216 33.5216 0 0 0 3.41452-1.07867c1.11066-.4336 2.20609-.89618 3.26654-1.43085 1.06613-.52081 2.09644-1.10846 3.111-1.71326L284.73 193.293c-1.12158.50586-2.25012.98767-3.40564 1.39685-1.14938.423-2.325.768-3.50363 1.07867a34.13578 34.13578 0 0 1-3.58328.69611A21.13844 21.13844 0 0 1 270.61548 196.67729ZM271.40826 200.04667a20.059 20.059 0 0 0 5.21079-.8194 24.53639 24.53639 0 0 0 4.81027-1.967l.66959 1.50983a25.77764 25.77764 0 0 1-5.31555 1.26654A20.45829 20.45829 0 0 1 271.40826 200.04667Z"></path>
  <path fill="none" stroke="#000" stroke-miterlimit="10" stroke-width=".826" d="M249.95332,187.2629s-8.53491,8.027-4.24268,19.32431l2.65353-4.1518"></path>
  <path d="M206.01462 182.03654a29.88826 29.88826 0 0 0-4.84014 6.81219 9.26145 9.26145 0 0 0-1.08108 3.83246c.03383.31476.04359.63178.0863.93811.09889.2995.15825.57514.273.89227l.79466 1.96454a21.14551 21.14551 0 0 0 4.14374 6.97425 13.79547 13.79547 0 0 0 3.13653 2.43066c.58863.30591 1.19617.58521 1.8102.84125.643.19079 1.26086.45312 1.92151.59051.66342.12506 1.31015.32251 1.98625.39679.67657.0694 1.34985.16522 2.02959.216l2.05481.03991c.68678.01245 1.3988-.0357 2.09741-.03936 2.80757-.05463 5.61372-.18573 8.42267-.30249 5.61456-.28711 11.23474-.6073 16.86059-1.03644a168.43032 168.43032 0 0 1-16.772 2.32226c-2.812.27094-5.63325.43231-8.4562.57959-1.399.09052-2.84476.07123-4.29665.04792-.724-.0467-1.44874-.141-2.17332-.21082-.72457-.0755-1.43866-.27625-2.15795-.41309a15.19479 15.19479 0 0 1-7.59967-4.39459 21.36517 21.36517 0 0 1-4.20749-7.58563l-.70068-1.98773c-.11185-.34882-.2-.76453-.292-1.14252-.04206-.38916-.02722-.78143-.03766-1.1684a10.01821 10.01821 0 0 1 1.44627-4.16241A26.93624 26.93624 0 0 1 206.01462 182.03654ZM234.93982 199.05058a10.19549 10.19549 0 0 1-.68655-3.56916 11.39336 11.39336 0 0 1 .44836-3.65661 8.809 8.809 0 0 1 1.77815-3.31983 5.9035 5.9035 0 0 1 3.19844-1.863 12.45006 12.45006 0 0 0-2.15971 2.626 15.7885 15.7885 0 0 0-1.23287 3.02289A62.73457 62.73457 0 0 0 234.93982 199.05058ZM243.06593 220.85746a11.69985 11.69985 0 0 1-.46484-4.0534 14.93787 14.93787 0 0 1 .75558-4.05237 12.16287 12.16287 0 0 1 2.00748-3.6471 8.75845 8.75845 0 0 1 3.25133-2.51739 26.36318 26.36318 0 0 0-2.18639 3.24341 22.56151 22.56151 0 0 0-1.51224 3.46008A56.25878 56.25878 0 0 0 243.06593 220.85746ZM210.56146 125.72242a20.11171 20.11171 0 0 1 10.238-13.8501 27.07141 27.07141 0 0 1 8.5172-2.71554c.73984-.08563 1.48459-.12583 2.22749-.18625a16.57283 16.57283 0 0 1 2.24819-.087 16.0748 16.0748 0 0 1 4.52826.68125 13.268 13.268 0 0 1 7.19256 5.5621 21.54489 21.54489 0 0 1 3.00121 8.45093 35.69022 35.69022 0 0 1-.546 13.18841 11.696 11.696 0 0 1-1.5867 4.07736 6.86182 6.86182 0 0 0 .74127-2.03222c.17937-.69989.30226-1.41422.41554-2.12744a34.92988 34.92988 0 0 0 .34835-4.31726 38.93572 38.93572 0 0 0-.64217-8.56748 21.22959 21.22959 0 0 0-3.03538-7.80874 11.76061 11.76061 0 0 0-6.38418-4.85114 14.45007 14.45007 0 0 0-4.07087-.644 15.28514 15.28514 0 0 0-2.112.06515l-2.12668.1431a27.48028 27.48028 0 0 0-8.12566 2.309A21.15117 21.15117 0 0 0 210.56146 125.72242Z"></path>
  <path d="M248.26244,126.7134s13.50232-10.7027,15.15276-13.08108c1.65085-2.37836-.33146-26.16213,14.5334-31.71168s35.67581,3.964,38.25248,7.53152S301.13783,102.53324,297.372,102.335c0,0-2.97265,10.3063-6.34208,8.52251,0,0,.5359-7.44726-5.77714-7.39029s-5.12391,11.35425-1.15971,11.35425c0,0-10.40548,25.35919-34.13988,26.55345l-4.24244.91633a31.28633,31.28633,0,0,0,2.55167-15.57789Z"></path>
  <path d="M278.76053 124.0352c-.8682 1.93762-1.85706 3.79138-2.88446 5.61932-1.018 1.83359-2.10584 3.62064-3.19184 5.40683-1.11084 1.77072-2.22427 3.5376-3.37609 5.279l-1.70972 2.62088c-.28937.43442-.56134.8775-.82736 1.32327a7.68233 7.68233 0 0 0-.36957.68116c-.088.22058-.27893.49231-.11575.70126-.13788-.053-.14981-.2359-.15638-.36417a2.71544 2.71544 0 0 1 .0336-.41034 7.37971 7.37971 0 0 1 .18717-.78808c.14813-.51694.33841-1.01514.52673-1.51331q.5998-1.47734 1.31326-2.89194c.93634-1.89346 1.99811-3.71063 3.09031-5.506 1.11984-1.77835 2.2716-3.53488 3.51452-5.23111A54.11562 54.11562 0 0 1 278.76053 124.0352ZM288.60748 119.77485a30.927 30.927 0 0 0-.78747 5.4946c-.0011.113.0173.21658.02411.32455a.73332.73332 0 0 0 .10647.23654 4.40362 4.40362 0 0 0 .39755.52228c.29548.34262.62369.66861.95179.99155.66235.64313 1.35156 1.26443 2.04879 1.87717 1.39676 1.2239 2.82636 2.41476 4.26435 3.59658l4.34887 3.561-1.13232 1.20242-4.03757-3.83578c-1.35217-1.28971-2.69684-2.58918-4.01071-3.92414-.65607-.66855-1.30447-1.346-1.93-2.05017-.31082-.35492-.61994-.7103-.90619-1.09619a4.7969 4.7969 0 0 1-.4021-.62189 1.146 1.146 0 0 1-.13522-.41351c-.00016-.12473-.01056-.25363-.00068-.37354A30.91022 30.91022 0 0 1 288.60748 119.77485Z"></path>
  <path d="M316.28357,89.4481a98.18143,98.18143,0,0,1,.81988,10.08816c.05143,1.68958.06073,3.38028-.02581,5.08835-.019.8324-.16584,1.78552-.18357,2.46784a7.99327,7.99327,0,0,0,.36234,2.24932,23.594,23.594,0,0,0,2.09485,4.43766,5.429,5.429,0,0,1,.87024,2.56482,2.03184,2.03184,0,0,1-.712,1.27115,7.30271,7.30271,0,0,1-1.0484.7966c-1.43466.93753-3.07214,1.5353-4.43072,2.39334a2.31278,2.31278,0,0,0-.203.16574c-.00787.02188-.04754.09411-.08056.18414-.06458.17761-.12021.37561-.17362.57318l-.27026,1.22089-.51663,2.4743a42.50484,42.50484,0,0,1-1.28785,4.94089,14.59431,14.59431,0,0,1-2.4053,4.70526,4.663,4.663,0,0,1-2.50354,1.63419,5.43172,5.43172,0,0,1-.78677.084l-.62839.0112-1.24222.03537a14.53212,14.53212,0,0,0-2.34521.23792,6.00313,6.00313,0,0,0-2.01886.84512,21.44532,21.44532,0,0,0-3.56964,3.22141,41.00276,41.00276,0,0,0-3.187,3.79614c-2.015,2.64892-3.86544,5.452-5.64981,8.30523l-.14764-.07406a58.068,58.068,0,0,1,4.74133-8.97452,42.45346,42.45346,0,0,1,3.06043-4.11792,20.24478,20.24478,0,0,1,3.7948-3.63489,7.48307,7.48307,0,0,1,2.609-1.08871,12.96237,12.96237,0,0,1,2.67-.23651l1.27984.006.63279.00977a3.9907,3.9907,0,0,0,.46655-.03135,3.09553,3.09553,0,0,0,1.65695-1.05352,14.86991,14.86991,0,0,0,2.34448-4.13694c.604-1.53042,1.15909-3.10516,1.64029-4.70944l.70276-2.42077.36823-1.21918c.06549-.2056.13168-.41037.22021-.62433a1.34963,1.34963,0,0,1,.21835-.36823,2.70408,2.70408,0,0,1,.29267-.22271c1.52444-.87165,3.08807-1.42829,4.45071-2.37628a5.55714,5.55714,0,0,0,.92041-.772,1.35,1.35,0,0,0,.45957-.88431,5.00748,5.00748,0,0,0-.98123-2.05889,22.94494,22.94494,0,0,1-2.60627-4.464,8.11724,8.11724,0,0,1-.53271-2.691c.02341-1.00068.14441-1.71271.19449-2.56159.11206-1.64941.15591-3.32352.20565-4.99658.08265-3.34924.15076-6.71155.2952-10.08218Z"></path>
  <path d="M280.5256,153.51536a14.30459,14.30459,0,0,1,2.95621-.82041,12.79006,12.79006,0,0,1,3.10471-.17044,5.41663,5.41663,0,0,1,3.066,1.039,3.14378,3.14378,0,0,1,1.01147,1.36941,3.98918,3.98918,0,0,1,.18817,1.61716l-.00494.09085-.04916.04553a6.33226,6.33226,0,0,1-1.6807,1.07047,10.83807,10.83807,0,0,1-1.86529.62692,11.053,11.053,0,0,1-3.9459.18292l.45258-.12711a1.90187,1.90187,0,0,0-.36157.50458.24612.24612,0,0,0-.03131.13376c.00509-.00214-.00287-.04272.00726-.02719a1.49121,1.49121,0,0,0,.47467.154,6.83439,6.83439,0,0,1,.90884.23859,4.31556,4.31556,0,0,1,1.71439,1.02874,1.43767,1.43767,0,0,1,.36282.692,1.035,1.035,0,0,1-.46274,1.01074,2.53856,2.53856,0,0,1-1.09307.29694,12.359,12.359,0,0,1-3.52381-.243,5.17881,5.17881,0,0,1-3.106-1.57822l.09243-.08246a3.58632,3.58632,0,0,0,1.49994.61057,8.96255,8.96255,0,0,0,1.62793.19922,16.976,16.976,0,0,0,3.25391-.14157,1.746,1.746,0,0,0,.53705-.13422c-.02845-.021-.15177.1629-.11383.29077-.00122.06586.01175.02707-.06025-.03207a3.44137,3.44137,0,0,0-1.17971-.69364,5.55067,5.55067,0,0,0-.72034-.23724,2.25275,2.25275,0,0,1-1.0582-.52573,1.16213,1.16213,0,0,1-.33636-.7792,1.41986,1.41986,0,0,1,.17041-.68088,2.74861,2.74861,0,0,1,.67825-.82626l.20255-.17713.25036.04993c.60251.12015,1.20706.22958,1.8197.29868a9.20918,9.20918,0,0,0,1.84794.02908,6.05167,6.05167,0,0,0,1.8027-.41861,4.14757,4.14757,0,0,0,1.50589-1.00168l-.054.136a2.47115,2.47115,0,0,0-1.28265-2.21387,7.84243,7.84243,0,0,0-2.64725-.71249,38.55383,38.55383,0,0,0-5.93017.028Z"></path>
  <path d="M297.74036 138.18586a83.86163 83.86163 0 0 1 18.003 12.213c.68548.60611 1.308 1.28751 1.954 1.93985.62359.67649 1.20111 1.40241 1.79541 2.11a19.12722 19.12722 0 0 1 2.721 4.8855 49.41418 49.41418 0 0 1 2.62564 10.66644 67.85391 67.85391 0 0 1-.45566 21.79767 57.1964 57.1964 0 0 1-7.70056 20.28674l.02218-.04193c-.9952 2.32208-2.12985 4.56195-3.32431 6.77747-1.1903 2.216-2.46145 4.39166-3.8399 6.50268a53.51833 53.51833 0 0 1-9.79645 11.55823 27.45653 27.45653 0 0 1-6.4476 4.18939 20.06344 20.06344 0 0 1-7.54947 1.76868 67.66885 67.66885 0 0 1-15.14664-1.29291 98.527 98.527 0 0 1-14.63058-3.945 71.702 71.702 0 0 1-13.75656-6.40246 32.98407 32.98407 0 0 1-6.0647-4.66352 15.67948 15.67948 0 0 1-1.29454-1.43866 12.93525 12.93525 0 0 1-1.13947-1.57861 13.3773 13.3773 0 0 1-.91122-1.73694 9.41618 9.41618 0 0 1-.54027-1.90356 8.6281 8.6281 0 0 1-.12294-1.96881 8.05372 8.05372 0 0 1 .38614-1.93817 13.32092 13.32092 0 0 1 1.69893-3.44837 20.307 20.307 0 0 1 5.40408-5.27478l.09662.134a19.93762 19.93762 0 0 0-5.01291 5.45008 13.30421 13.30421 0 0 0-1.44485 3.35437 7.29556 7.29556 0 0 0-.2849 1.7514 7.7424 7.7424 0 0 0 .178 1.76715 8.47489 8.47489 0 0 0 .547 1.68549 12.37508 12.37508 0 0 0 .89386 1.55426 11.878 11.878 0 0 0 1.11447 1.42554 14.58113 14.58113 0 0 0 1.26952 1.30749 33.08209 33.08209 0 0 0 5.945 4.333 75.34054 75.34054 0 0 0 13.59257 5.99353q3.52721 1.2053 7.14121 2.143c2.40237.63727 4.82293 1.21338 7.26455 1.67261a68.232 68.232 0 0 0 14.74677 1.43573c4.87359-.05261 9.43167-2.27331 13.22674-5.39a54.6322 54.6322 0 0 0 9.93054-11.01953 79.41728 79.41728 0 0 0 7.37452-13.01178l.00811-.01825.01426-.024 1.37585-2.32031.68738-1.16126.57107-1.223 1.13871-2.44617.93859-2.53021.46543-1.26563.37442-1.29638c.24692-.86475.50958-1.72528.72659-2.59711.33875-1.76764.78385-3.51086.98166-5.30054a66.81708 66.81708 0 0 0 .70419-10.73291 74.26113 74.26113 0 0 0-.80426-10.709 53.31369 53.31369 0 0 0-2.44958-10.39249 17.72334 17.72334 0 0 0-2.47333-4.594c-.56-.6832-1.09988-1.38434-1.69208-2.04538-.62442-.63461-1.19052-1.32306-1.84265-1.93579a71.18982 71.18982 0 0 0-8.267-6.89621c-2.89526-2.14847-5.91845-4.13269-9.00418-6.01441ZM218.6628 208.76737c2.3936 1.28028 4.544 2.72925 6.78106 3.98127a24.91526 24.91526 0 0 0 3.39292 1.66778 6.68446 6.68446 0 0 0 3.70926.49512 4.84713 4.84713 0 0 1-4.04645.74884 12.62905 12.62905 0 0 1-3.86945-1.47559 19.5369 19.5369 0 0 1-3.28692-2.38446A15.493 15.493 0 0 1 218.6628 208.76737Z"></path>
  <path d="M298.64151 236.89024a31.11852 31.11852 0 0 1 5.06961 2.43493 27.77472 27.77472 0 0 1 4.59619 3.27027 19.62723 19.62723 0 0 1 1.95233 2.09015 4.69821 4.69821 0 0 1 1.24283 2.69287 2.94644 2.94644 0 0 1-1.58441 2.45306 9.3497 9.3497 0 0 1-2.68323 1.10254 11.81358 11.81358 0 0 1-2.89065.39661 9.04847 9.04847 0 0 1-2.93994-.51252 31.10278 31.10278 0 0 1-5.19422-2.322 55.08633 55.08633 0 0 1-9.16784-6.46185l.09149-.13751c3.39431 1.58685 6.64557 3.36072 9.91183 5.04846 1.62506.8443 3.23422 1.74982 4.88486 2.41107a9.53741 9.53741 0 0 0 2.48489.65064 12.84783 12.84783 0 0 0 2.65677.03759 6.9921 6.9921 0 0 0 2.56149-.69647 2.14987 2.14987 0 0 0 1.33384-1.94818 3.37287 3.37287 0 0 0-1.3714-2.07794c-.67322-.60291-1.434-1.11969-2.16083-1.66394-2.91492-2.19061-5.93552-4.29346-8.87344-6.62323ZM222.71085 211.94883a23.41832 23.41832 0 0 0 .69514 6.34375 20.76256 20.76256 0 0 0 2.338 5.84332 23.20116 23.20116 0 0 0 8.90672 8.61927 40.923 40.923 0 0 0 5.75455 2.74328 30.2532 30.2532 0 0 1 5.80794 3.02851 23.21756 23.21756 0 0 1 4.87463 4.35687 24.38088 24.38088 0 0 1 3.44606 5.58587 39.73584 39.73584 0 0 1 2.10841 6.2082c.27707 1.04766.54 2.09362.84076 3.10571a12.27612 12.27612 0 0 0 1.11792 2.80322 3.07792 3.07792 0 0 0 .86823.91956 2.7478 2.7478 0 0 0 .55731.25854l.74112.239a19.07819 19.07819 0 0 0 3.02921.66046 11.3654 11.3654 0 0 0 5.88888-.51746 5.881 5.881 0 0 0 2.20767-1.68274 3.03665 3.03665 0 0 0 .38864-.58746 3.79974 3.79974 0 0 0 .34333-.62384 8.19937 8.19937 0 0 0 .47421-1.38379 18.81354 18.81354 0 0 0 .19434-6.17743 24.06352 24.06352 0 0 0-1.45734-6.14331 20.76843 20.76843 0 0 0-1.38535-2.86023 14.35752 14.35752 0 0 0-.89953-1.3139 4.35993 4.35993 0 0 0-1.10822-1.07648l.03617-.16113a7.07426 7.07426 0 0 1 2.41333 2.25329 17.21962 17.21962 0 0 1 1.70828 2.82178 23.07448 23.07448 0 0 1 1.97247 6.3067 28.91581 28.91581 0 0 1 .31583 3.30341 14.24259 14.24259 0 0 1-.23966 3.40753 8.78 8.78 0 0 1-.50787 1.6947 5.26781 5.26781 0 0 1-.41556.80212 4.38468 4.38468 0 0 1-.48907.7674 7.61252 7.61252 0 0 1-2.8407 2.26514 12.443 12.443 0 0 1-6.85184.60852 20.76 20.76 0 0 1-3.27334-.80274l-.79346-.27893a4.44827 4.44827 0 0 1-.89185-.45032 4.63488 4.63488 0 0 1-1.31216-1.44036 12.71053 12.71053 0 0 1-1.19641-3.22651c-.266-1.07183-.48149-2.13244-.70944-3.1842a46.58144 46.58144 0 0 0-1.67113-6.17175 19.33481 19.33481 0 0 0-7.77735-9.83753 23.634 23.634 0 0 0-5.82154-2.60968 39.3214 39.3214 0 0 1-6.11335-2.40735 21.34825 21.34825 0 0 1-9.36557-9.21075 20.26134 20.26134 0 0 1-2.06239-6.28314 12.36293 12.36293 0 0 1-.20686-1.63513c-.059-.54584-.06342-1.09534-.069-1.64258a15.773 15.773 0 0 1 .26649-3.262Z"></path>
  <line x1="308.816" x2="308.696" y1="225.623" y2="243.825" fill="none" stroke="#000" stroke-miterlimit="10" stroke-width=".826"></line>
  <path d="M267.389 177.55125a42.60826 42.60826 0 0 1 2.94739-4.38526c1.04464-1.40789 2.16232-2.75262 3.29412-4.08508 1.15516-1.31219 2.326-2.6109 3.56949-3.84662A42.1254 42.1254 0 0 1 281.12 161.691a42.13143 42.13143 0 0 1-2.94552 4.38684c-1.045 1.40765-2.16263 2.75238-3.296 4.08349-1.15671 1.31092-2.32752 2.60956-3.57138 3.845A42.60135 42.60135 0 0 1 267.389 177.55125ZM311.86041 147.74546q-2.52121 6.31141-5.426 12.44644c-1.91321 4.10013-3.94129 8.14456-6.0318 12.15866-2.11957 3.99854-4.297 7.97059-6.668 11.83692-1.17975 1.93616-2.41071 3.84418-3.72656 5.69916-.672.918-1.35617 1.82843-2.09824 2.69622a15.08846 15.08846 0 0 1-1.17346 1.25055 5.08511 5.08511 0 0 1-.67835.53315 1.15256 1.15256 0 0 1-.80523.25457 1.098 1.098 0 0 0 .7308-.35473 4.91184 4.91184 0 0 0 .573-.60608 15.59685 15.59685 0 0 0 1.00543-1.3432c.63138-.92707 1.2056-1.89606 1.76666-2.871 1.14036-1.93909 2.21235-3.9217 3.28861-5.90113q3.19391-5.95917 6.3241-11.96234l6.34576-11.96725Q308.47306 153.63473 311.86041 147.74546ZM274.6633 203.86466a41.13176 41.13176 0 0 1 3.92187 2.91535 39.08735 39.08735 0 0 1 3.53479 3.32147 27.811 27.811 0 0 1 2.98826 3.80591 16.96841 16.96841 0 0 1 1.9797 4.37353 16.758 16.758 0 0 0-2.31857-4.13763 27.20293 27.20293 0 0 0-3.22876-3.45337 38.07035 38.07035 0 0 0-3.7077-2.92578 39.91078 39.91078 0 0 0-3.98719-2.46442ZM276.92142 202.95933c2.46341 1.27405 4.85193 2.62018 7.18234 4.09057 1.16321.73389 2.31018 1.49488 3.41275 2.31794a23.82848 23.82848 0 0 1 3.11978 2.68115 23.6314 23.6314 0 0 0-3.34888-2.33765c-1.16647-.70019-2.37136-1.33539-3.589-1.94189-2.43143-1.21222-4.93845-2.30823-7.44751-3.30066ZM273.848 258.37754a32.804 32.804 0 0 1 4.56284 3.327 24.7528 24.7528 0 0 1 3.91357 4.11566 15.536 15.536 0 0 1 1.4567 2.507l.27441.68725.19977.72675a2.41147 2.41147 0 0 1-.132 1.58276 1.76149 1.76149 0 0 1-.56787.57428 3.62809 3.62809 0 0 1-.63736.38178 5.43972 5.43972 0 0 1-1.39969.455 11.05727 11.05727 0 0 1-2.89425.09827 28.523 28.523 0 0 1-5.584-1.05c-1.811-.48706-3.60492-.98333-5.37811-1.52337a22.75963 22.75963 0 0 1-5.34262-2.11859 5.53566 5.53566 0 0 1-1.19245-.9964 2.69888 2.69888 0 0 1-.73614-1.48676 2.12112 2.12112 0 0 1 .44949-1.55322 3.51174 3.51174 0 0 1 1.10163-.97327l.03582-.02032.01615.00238.00815.00122v.16516l-.00815.00116.0516-.01782a2.42631 2.42631 0 0 0-.8237 2.23474 3.219 3.219 0 0 0 1.73728 1.50952 36.45608 36.45608 0 0 0 5.19827 1.56134c3.60934 1.032 7.07535 2.44153 10.599 3.37024a8.10663 8.10663 0 0 0 2.67737.24152 3.91714 3.91714 0 0 0 1.264-.35273 2.13977 2.13977 0 0 0 .55417-.34057 1.25877 1.25877 0 0 0 .39731-.413 2.76645 2.76645 0 0 0-.67477-2.30493 21.37189 21.37189 0 0 0-1.72275-2.08923c-2.3938-2.744-5.0448-5.32514-7.51-8.17633ZM284.66541 113.2758a1.2298 1.2298 0 0 0 0-2.45812 1.2298 1.2298 0 0 0 0 2.45812ZM314.39511 118.32985a1.2298 1.2298 0 0 0 0-2.45812 1.2298 1.2298 0 0 0 0 2.45812ZM311.86041 107.92446a1.2298 1.2298 0 0 0 0-2.45812 1.2298 1.2298 0 0 0 0 2.45812ZM225.60442 133.7893a1.2298 1.2298 0 0 0 0-2.45812 1.2298 1.2298 0 0 0 0 2.45812ZM213.43533 133.7893a1.2298 1.2298 0 0 0 0-2.45812 1.2298 1.2298 0 0 0 0 2.45812ZM309.11545 102.68189a3.46945 3.46945 0 0 1 1.06622-1.41848 4.69536 4.69536 0 0 1 1.57266-.85273 4.19927 4.19927 0 0 1 1.79737-.16745 3.26459 3.26459 0 0 1 1.65832.65488c-.60135.1391-1.12182.18955-1.62842.31131a12.54359 12.54359 0 0 0-1.45944.38336C311.15555 101.87672 310.24008 102.27631 309.11545 102.68189ZM305.43637 118.64344a21.68354 21.68354 0 0 0 3.12573 3.58606 7.20118 7.20118 0 0 0 1.90094 1.13971 9.76159 9.76159 0 0 0 2.33145.52667 4.19561 4.19561 0 0 1-2.57345.40918 5.20319 5.20319 0 0 1-2.45023-1.12347 6.88153 6.88153 0 0 1-1.62518-2.07074A6.05 6.05 0 0 1 305.43637 118.64344Z"></path>
  <path fill="#020202" d="M233.81525,466.50419a36.94957,36.94957,0,0,1,1.08975,4.95221c.2688,1.66827.50778,3.34442.64737,5.03216.14491,1.68708.235,3.38184.22648,5.08594a23.5175,23.5175,0,0,1-.50134,5.14075,6.65626,6.65626,0,0,1-1.11693,2.52582,2.78918,2.78918,0,0,1-1.28688.9339,3.05917,3.05917,0,0,1-.39929.10107l-.277.05878a4.93992,4.93992,0,0,0-.54223.157c-.7042.244-1.46117.669-2.286.98614a16.66815,16.66815,0,0,1-2.51442.764,44.00825,44.00825,0,0,1-10.19336.72034c-3.3846-.06519-6.75227-.30774-10.11651-.52515L196.4543,491.805c-6.72928-.38232-13.46419-.77807-20.173-1.43555l-.03525-.00347a.66516.66516,0,0,1-.597-.59906,2.87331,2.87331,0,0,1,.09114-1.02625,4.47762,4.47762,0,0,1,.30169-.82361,6.55592,6.55592,0,0,1,.889-1.40069,12.1677,12.1677,0,0,1,2.30437-2.15711,27.37925,27.37925,0,0,1,5.33009-2.9873c1.85046-.79,3.77106-1.4607,5.65289-2.05084l5.63228-1.846a51.7015,51.7015,0,0,0,10.73438-4.69068,17.66054,17.66054,0,0,0,4.36456-3.79718,16.88524,16.88524,0,0,0,2.795-5.131.077.077,0,0,1,.14754.04322,16.26789,16.26789,0,0,1-2.429,5.47485A17.89506,17.89506,0,0,1,207.139,473.608a47.79359,47.79359,0,0,1-10.79695,5.24786c-3.72263,1.41815-7.5546,2.52954-11.12664,4.02143a29.61055,29.61055,0,0,0-5.05838,2.73883,10.68985,10.68985,0,0,0-2.06544,1.84326,5.11729,5.11729,0,0,0-.726,1.08288,3.05385,3.05385,0,0,0-.2238.56257,2.57134,2.57134,0,0,0-.07732.44268l-.632-.60235c6.68648.76391,13.36229,1.653,20.06445,2.29913a150.02134,150.02134,0,0,0,20.15488.60687,67.01214,67.01214,0,0,0,9.9108-.94366,15.33283,15.33283,0,0,0,2.324-.66681c.75429-.26965,1.47323-.68152,2.37234-.96179a6.20506,6.20506,0,0,1,.676-.17194l.34305-.06073a1.72062,1.72062,0,0,0,.21317-.049,1.56446,1.56446,0,0,0,.7319-.52252,5.56588,5.56588,0,0,0,.93527-2.04859,23.02983,23.02983,0,0,0,.6528-4.8753c.07195-1.6629.0475-3.33753-.0321-5.01019a66.29306,66.29306,0,0,0-1.11153-9.99366.077.077,0,0,1,.05472-.09411A.08142.08142,0,0,1,233.81525,466.50419Z"></path>
  <path fill="#020202" d="M227.23668 472.23893a4.54241 4.54241 0 0 1 .039 3.88654 3.865 3.865 0 0 1-1.30162 1.56042 4.14171 4.14171 0 0 1-1.82653.73377 10.58042 10.58042 0 0 0 1.43662-1.18958 4.7902 4.7902 0 0 0 .99621-1.43127 6.24963 6.24963 0 0 0 .514-1.69086A12.04072 12.04072 0 0 0 227.23668 472.23893ZM234.59374 488.30461s4.30316 1.54 1.92561 9.59364c0 0 .34815 2.99671-10.00953 2.43483l-52.15183.07017s-3.86034-8.79462 4.15724-10.51946l13.0923 1.249s-3.25758-8.03077-2.349-10.65289a11.95546 11.95546 0 0 1 13.7911-5.40084s-.53823 12.88613 9.09871 17.29079C212.14832 492.36982 226.32343 491.63429 234.59374 488.30461ZM302.28036 468.23893a37.2058 37.2058 0 0 1 1.1251 4.83661c.28506 1.63068.52969 3.27185.669 4.92639a43.77383 43.77383 0 0 1 .18549 4.99359 14.66382 14.66382 0 0 1-.84622 5.05231 3.548 3.548 0 0 1-1.97327 2.11 2.52478 2.52478 0 0 1-.38977.10425l-.28622.06092a4.99784 4.99784 0 0 0-.53287.145 10.932 10.932 0 0 0-1.06952.44659 17.63193 17.63193 0 0 1-4.85956 1.541 51.32112 51.32112 0 0 1-9.97726.48358c-3.31192-.07892-6.60733-.33972-9.90128-.54511l-9.87994-.61761c-6.58991-.36463-13.18331-.76477-19.75225-1.407l-.03993-.0039a.65922.65922 0 0 1-.5923-.59863 2.565 2.565 0 0 1 .05161-.84479 4.36015 4.36015 0 0 1 .20152-.6872 6.2698 6.2698 0 0 1 .634-1.19159 10.03643 10.03643 0 0 1 1.719-1.89318 21.32016 21.32016 0 0 1 4.09652-2.729 50.03822 50.03822 0 0 1 8.98694-3.42981c3.043-.91339 6.17423-1.61908 9.22486-2.33789a13.33854 13.33854 0 0 0 4.26889-1.67511 39.42888 39.42888 0 0 0 3.79269-2.79584.07706.07706 0 0 1 .10834.01148.07812.07812 0 0 1-.00385.10132 30.88732 30.88732 0 0 1-3.49841 3.26983 14.25676 14.25676 0 0 1-4.36884 2.14374c-3.06225.91644-6.06872 1.76642-9.05764 2.77448a60.1901 60.1901 0 0 0-8.70511 3.39007 19.83344 19.83344 0 0 0-3.84005 2.43518 8.56944 8.56944 0 0 0-1.50067 1.57367 4.83271 4.83271 0 0 0-.50044.88666 2.94583 2.94583 0 0 0-.14285.44641 2.36478 2.36478 0 0 0-.051.33209l-.632-.60235c6.547.74933 13.084 1.61273 19.64484 2.263 3.2829.28686 6.56909.55157 9.8623.664 3.29218.12488 6.59.09265 9.87314.00543a80.17247 80.17247 0 0 0 9.74414-.78381 16.22557 16.22557 0 0 0 4.55753-1.3711 10.18363 10.18363 0 0 1 1.22568-.46984 6.26957 6.26957 0 0 1 .66494-.15839l.32056-.05756a1.29721 1.29721 0 0 0 .20792-.05041 2.38393 2.38393 0 0 0 1.28924-1.41 14.60781 14.60781 0 0 0 .92966-4.62842 42.89281 42.89281 0 0 0 .01819-4.89185 63.29915 63.29915 0 0 0-1.14844-9.77453.077.077 0 0 1 .05545-.09363A.08041.08041 0 0 1 302.28036 468.23893Z"></path>
  <path fill="#020202" d="M295.74713 472.23893a4.54237 4.54237 0 0 1 .039 3.88654 3.86524 3.86524 0 0 1-1.30163 1.56042 4.14152 4.14152 0 0 1-1.82654.73377 10.58135 10.58135 0 0 0 1.43665-1.18958 4.79093 4.79093 0 0 0 .99621-1.43127 6.25 6.25 0 0 0 .514-1.69086A12.04322 12.04322 0 0 0 295.74713 472.23893ZM303.1042 488.30461s4.30316 1.54 1.92561 9.59364c0 0 .34815 2.99671-10.00953 2.43483l-52.15183.07017s-3.86034-8.79462 4.15724-10.51946l13.0923 1.249s-3.25759-8.03077-2.349-10.65289a11.95546 11.95546 0 0 1 13.7911-5.40084s-.53824 12.88613 9.09871 17.29079C280.65878 492.36982 294.83389 491.63429 303.1042 488.30461Z"></path>
  <path d="M316.10066,325.04683v.0105a.45912.45912,0,0,1-.27273.46152l-9.37711,4.43687-3.52427,1.6677c-.66081.30422-1.32162.62938-1.98243.944-3.63963,1.73064-7.24783,3.49277-10.877,5.22348a.189.189,0,0,1-.10486.021c-1.36361-.14686-2.71666-.29372-4.06971-.44058-.35666-.04193-.70281-.07336-1.0594-.11536-2.03486-.20979-4.05921-.39859-6.09407-.60831l-11.22318-1.10139-15.53412-1.46842-6.92274-.65031c-7.48906-.71324-14.95718-1.42654-22.4463-2.18171-2.45444-.24123-4.91932-.493-7.39469-.73424-2.8006-.28323-5.60113-.55588-8.41216-.84961q-3.304-.33043-6.61852-.6818h-.01049a.72328.72328,0,0,1-.62932-.71324c-.01049-6.39823.07343-12.77553.2098-19.17376.13629-6.33536.409-12.64966.73417-18.985,0-.06293.0105-.12586.0105-.18879.08393-1.67821.18879-3.325.28322-5.00318v-.0105c.30416-4.70953.70274-9.40862,1.22719-14.10764.35665-3.16769.75524-6.3458,1.33212-9.503a41.82426,41.82426,0,0,1,2.5173-9.25126.05558.05558,0,0,1,.08393-.03143c.0105.01043.021.02093.021.03143a.03666.03666,0,0,1,.0105.021v.03143a43.06221,43.06221,0,0,0-2.18172,9.27226c-.44051,3.15718-.76567,6.33529-1.04889,9.503-.29372,3.367-.51395,6.74438-.70274,10.12179v.0105c-.08393,1.52091-.15736,3.04181-.23079,4.54173-.07343,1.48941-.13636,2.95789-.1888,4.4368-.26222,6.37729-.38808,12.75459-.50344,19.14232-.12587,6.157-.17836,12.335-.14686,18.492q2.98938.31468,5.96821.62937,4.29519.45624,8.57994.93347,3.60292.39333,7.2269.77624c7.47862.7971,14.94674,1.63627,22.42536,2.47537l6.3458.72374,16.05857,1.81457,11.20218,1.22719c1.96143.20979,3.92286.43008,5.87378.62937.35666.04193.71331.07343,1.0489.11536,1.42654.14686,2.832.29372,4.23757.43,3.6082-1.80407,7.2164-3.5557,10.8246-5.37033.62931-.30416,1.25868-.61881,1.89849-.944l3.7655-1.888,8.69537-4.35294c-.75523-6.19894-1.416-12.40844-2.09779-18.60737-.6923-6.32487-1.29018-12.64967-1.94049-18.964-.12586-1.24819-.26222-2.49637-.37759-3.74456-.51394-5.07661-.97546-10.16379-1.458-15.2404-.56638-5.77942-1.06983-11.56933-1.55235-17.34875-.021-.20973-.03149-.41952-.05243-.61881-.0315-.34616-.05243-.68181-.08393-1.028-.0105-.04194.0105-.06293.05243-.07337a.0693.0693,0,0,1,.07343.06293v.03143c.05244.33566.08393.66081.12587.986.021.16786.03149.32515.05243.48251.74474,5.81085,1.46848,11.6217,2.12928,17.42212q.51924,4.53123,1.0594,9.06246c.37758,3.29354.75517,6.587,1.10132,9.88057.68181,6.32486,1.40555,12.62866,2.05586,18.95352C314.863,312.38674,315.52378,318.71154,316.10066,325.04683Z"></path>
  <path d="m289.44314 266.35372.08577 9.82493c.06123 6.54174.18371 13.08354.294 19.6498.06123 1.88655.13473 3.78544.2205 5.672q.27557 6.98277.72273 13.96562l.66158 9.80041c.26948 3.27087.5145 6.52947.82076 9.80041l-.79631-19.63761c-.15926-3.84668-.33071-7.69328-.46552-11.54q-.16533-4.04269-.25722-8.08538l-.5145-19.63754-.33079-9.82493c-.13473-3.27087-.245-6.554-.41655-9.82486C289.43088 259.79972 289.45533 263.07059 289.44314 266.35372ZM295.92364 330.46068a.05784.05784 0 0 0 .0735.01226 23.91723 23.91723 0 0 0 3.24641-3.24642c.31845-.392.62472-.784.90653-1.20052a18.24157 18.24157 0 0 0 2.57258-5.53726 2.23806 2.23806 0 0 1 .12255-.34305l.06124-.17145.06123-.245a6.82768 6.82768 0 0 0 .0735-.80857c.02453-.52676.03679-1.029.049-1.53132.01226-1.01673 0-2.03355 0-3.0381-.03671-2.03355-.08569-4.05492-.15926-6.064-.147-4.04265-.392-8.08531-.61253-12.1157-.147-2.53586-.31845-5.084-.50224-7.61986.34305 2.13158.6615 4.27542.95558 6.407L304.205 305.8371c.5145 3.61392 1.127 7.21557 1.70284 10.82949a11.01511 11.01511 0 0 0 1.97231 5.20646 4.92654 4.92654 0 0 0 4.99823 1.87429.0673.0673 0 0 0 .03671-.06123.06568.06568 0 0 0-.049-.03672h-.01226a4.79206 4.79206 0 0 1-2.62163-.3675 5.10048 5.10048 0 0 1-1.98458-1.69057 10.68787 10.68787 0 0 1-1.66605-5.0105c-.52676-3.61391-1.00455-7.24-1.60481-10.85393l-1.86211-10.81723q-.90039-5.40247-1.61707-10.82941v-.02452a.20709.20709 0 0 0-.23277-.17153.19231.19231 0 0 0-.17152.20824v.02452l.40429 12.09125.46552 12.11578.23276 6.03949c.03679 1.00455.07351 2.02137.08577 3.02584 0 .50232.01226 1.00456 0 1.49461a5.862 5.862 0 0 1-.049.69828l-.01226.12248-.06124.18379c-.049.13474-.08576.25721-.12255.37976-.28174.98-.55129 1.92334-.91879 2.85439a16.34646 16.34646 0 0 1-1.35979 2.64608c-.20823.33079-.42873.6615-.67376.98a23.39067 23.39067 0 0 1-3.14839 3.65071A.04262.04262 0 0 0 295.92364 330.46068Z"></path>
  <path d="M274.17633 255.694c2.5553.01507 5.10724.09283 7.66065.14252 2.55307.05645 5.10333.16558 7.65515.24578l-.12308.01123c3.21106-.83221 6.42593-1.64837 9.65018-2.42559l9.66366-2.36945-.45541.57739-.01819-1.83532.56424.61-8.89664-.74926c-2.96506-.26044-5.933-.47559-8.89618-.77338-2.96673-.23755-5.94021-.36774-8.91089-.557-2.96933-.2207-5.94122-.39947-8.91091-.65985 2.9811-.02551 5.96.03052 8.94143.04456 2.9784.07446 5.96118.08569 8.93765.21222 2.97413.16638 5.94349.4154 8.91568.61908l8.91526.64325a.60961.60961 0 0 1 .56442.61029l-.01816 1.83532-.00009.0091a.59053.59053 0 0 1-.45551.56854l-9.68826 2.26672c-3.22641.76807-6.46216 1.49732-9.70175 2.21045l-.01682.00367a.37684.37684 0 0 1-.10662.00756c-2.54581-.1925-5.09314-.35608-7.63767-.57232C279.26431 256.14652 276.71866 255.95164 274.17633 255.694ZM205.91431 252.0648c2.08989-.03253 4.17845.025 6.26934.03473l6.2698.16626c4.181.11218 8.35162.31616 12.52511.52288 4.17125.23523 8.34238.473 12.50847.8053l6.24892.50293c2.08059.21234 4.16343.38263 6.24208.63208-2.09337.028-4.18254-.02325-6.274-.03241L243.437 254.535c-4.17792-.11066-8.35083-.31592-12.52359-.52374-4.17049-.23737-8.344-.473-12.50684-.80853l-6.24578-.50653C210.07968 252.48466 207.99664 252.30814 205.91431 252.0648Z"></path>
  <path d="M291.14594,248.62144c-.35785-2.2818-.74527-4.553-1.22138-6.80652-.44382-2.25824-.941-4.50464-1.51953-6.72791a93.32314,93.32314,0,0,0-4.26819-13.05023,47.26263,47.26263,0,0,0-3.0325-6.11865,31.74967,31.74967,0,0,0-3.97788-5.501,17.39047,17.39047,0,0,0-11.88418-5.93756,15.42193,15.42193,0,0,1,6.81662,1.25873,19.63463,19.63463,0,0,1,5.7471,4.026,37.07942,37.07942,0,0,1,7.459,11.79706,73.67088,73.67088,0,0,1,4.05365,13.31335A86.62086,86.62086,0,0,1,291.14594,248.62144Z"></path>
  <path d="M278.58917 255.9376c.31183-2.43329.5839-4.86572.76047-7.306.21069-2.43573.35614-4.87573.4133-7.31549a92.64432 92.64432 0 0 0-.62579-14.5708 46.64789 46.64789 0 0 0-1.43225-7.1084 30.22472 30.22472 0 0 0-2.68647-6.68292 18.30314 18.30314 0 0 0-4.59936-5.47333A17.22518 17.22518 0 0 0 263.9314 204.3a16.39974 16.39974 0 0 1 6.84634 2.69891 18.93578 18.93578 0 0 1 5.05176 5.47528 36.303 36.303 0 0 1 4.52136 14.11011 75.12931 75.12931 0 0 1 .34906 14.77649A91.21226 91.21226 0 0 1 278.58917 255.9376ZM215.52351 252.17375c.12807-1.76905.27654-3.53974.43335-5.31159.20958-1.76422.4813-3.52435.74762-5.28589.35439-1.74426.72893-3.48956 1.14711-5.22394l.74137-2.57537c.12808-.42817.23779-.86237.38119-1.28589l.45932-1.2619a40.93373 40.93373 0 0 1 4.85611-9.59278c.47977-.765 1.095-1.43829 1.63727-2.16174.59483-.68231 1.19858-1.36377 1.85687-1.99225a15.66461 15.66461 0 0 1 4.5454-3.15869.56995.56995 0 0 1 .721.81036l-.02879.04828a37.66242 37.66242 0 0 0-3.2166 7.22266 52.28668 52.28668 0 0 0-1.96168 7.727 51.35 51.35 0 0 0-.73226 7.96252c-.07129 1.338.02135 2.67346.06369 4.0138.06429 1.33856.24289 2.66906.34905 4.01147a49.94531 49.94531 0 0 1-.93707-8.02136 46.21993 46.21993 0 0 1 .41735-8.09631 43.71975 43.71975 0 0 1 1.78591-7.93189 38.5704 38.5704 0 0 1 3.2475-7.51117l.69212.85858a15.01789 15.01789 0 0 0-4.10387 2.95026c-.63035.5874-1.21443 1.232-1.79123 1.87695-.52758.69013-1.12652 1.32477-1.59822 2.06a39.99415 39.99415 0 0 0-4.83821 9.28772l-.49551 1.22192c-.15584.411-.27864.83423-.41973 1.251l-.82171 2.51178c-.4737 1.69684-.90618 3.41034-1.31987 5.12732-.31972 1.73706-.72544 3.46234-1.02686 5.20764C216.06294 248.66471 215.80342 250.41844 215.52351 252.17375ZM350.38339 410.38713a.05516.05516 0 0 1-.07008.01169 22.8028 22.8028 0 0 1-3.09508-3.09508c-.30361-.37375-.59559-.7475-.86427-1.14457A17.39113 17.39113 0 0 1 343.9013 400.88a2.13286 2.13286 0 0 0-.11683-.32706l-.05839-.16346-.05838-.2336a6.51134 6.51134 0 0 1-.07007-.77089c-.02339-.50221-.03508-.981-.0467-1.45993-.01169-.96934 0-1.93876 0-2.89648.035-1.93876.0817-3.8659.15184-5.78135.14015-3.8542.37368-7.70841.584-11.55092.14014-2.41766.3036-4.847.47882-7.26466-.32706 2.03221-.63066 4.07612-.911 6.10833l-1.36648 10.37136c-.49051 3.44546-1.07449 6.87922-1.62346 10.32467a10.50165 10.50165 0 0 1-1.88037 4.96377 4.6969 4.6969 0 0 1-4.76524 1.78692.06417.06417 0 0 1-.035-.05838.0626.0626 0 0 1 .04669-.035h.01169a4.56876 4.56876 0 0 0 2.49942-.35037 4.86282 4.86282 0 0 0 1.89207-1.61177 10.18976 10.18976 0 0 0 1.58839-4.77693c.5022-3.44546.95772-6.90253 1.53-10.348l1.7753-10.313q.85842-5.15064 1.5417-10.3246v-.02338a.19742.19742 0 0 1 .22191-.16353.18334.18334 0 0 1 .16353.19853v.02338l-.38544 11.52762-.44383 11.551-.22191 5.758c-.03507.95772-.07007 1.92714-.08176 2.88479 0 .4789-.01169.95772 0 1.42493a5.589 5.589 0 0 0 .04669.66574l.01169.11677.05838.17522c.04677.12845.08177.24522.11684.36206.26861.93434.52559 1.83368.876 2.72133a15.58456 15.58456 0 0 0 1.2964 2.52273c.19853.31537.40875.63066.64236.93434a22.30042 22.30042 0 0 0 3.00163 3.48053A.04063.04063 0 0 1 350.38339 410.38713ZM356.6874 351.21872l-.08176 9.36695c-.05839 6.23679-.17515 12.47365-.2803 18.73382-.05838 1.79861-.12846 3.609-.21022 5.40759q-.26272 6.65727-.68905 13.31461l-.63074 9.34356c-.25691 3.1184-.49051 6.2251-.7825 9.34357l.75919-18.7222c.15184-3.66737.3153-7.33466.44383-11.002q.15761-3.85425.24522-7.70848l.49052-18.72213.31537-9.367c.12845-3.11839.2336-6.24848.39713-9.36688C356.69909 344.97024 356.67578 348.08864 356.6874 351.21872Z"></path>
  <path d="M396.16479,332.70371l-28.364,1.406L339.4317,335.388l.154-.89148,17.27982,6.84076-.2301-.03809c2.82418-.16644,5.64685-.36194,8.474-.47229l8.47851-.38757c5.65546-.20013,11.31177-.38422,16.97687-.40363-5.63513.5821-11.279.99946-16.92377,1.40076l-8.4718.51465c-2.82291.19037-5.65036.29565-8.47626.42993l-.0054.00025a.541.541,0,0,1-.22513-.03846l-17.22094-6.98761a.462.462,0,0,1-.2605-.59924.46916.46916,0,0,1,.41449-.29236l28.38214-.94378Z"></path>
  <path d="M355.064,334.31306a70.87847,70.87847,0,0,1,1.42045-13.18073,66.81979,66.81979,0,0,1,3.80316-12.77948,34.75444,34.75444,0,0,1,7.2557-11.31512,18.02312,18.02312,0,0,1,5.63013-3.79376,14.12147,14.12147,0,0,1,6.58673-1.0152,16.198,16.198,0,0,0-6.16522,1.9021,19.00045,19.00045,0,0,0-4.92615,3.9881,30.3279,30.3279,0,0,0-3.69354,5.218,45.42877,45.42877,0,0,0-2.84573,5.79218,95.64706,95.64706,0,0,0-4.13071,12.35516C356.87079,325.70442,355.91788,329.98249,355.064,334.31306Z"></path>
  <path d="M367.03543 341.28816a75.33638 75.33638 0 0 1-2.34219-13.88153c-.20212-2.34717-.25382-4.70673-.24726-7.07007a67.21949 67.21949 0 0 1 .49772-7.08808 34.15715 34.15715 0 0 1 4.43774-13.56622 17.52206 17.52206 0 0 1 4.979-5.2157 15.04808 15.04808 0 0 1 6.64948-2.40887 17.12173 17.12173 0 0 0-6.063 3.19653 18.08892 18.08892 0 0 0-4.2222 5.2226 28.79345 28.79345 0 0 0-2.46829 6.31378 44.73714 44.73714 0 0 0-1.3313 6.7207 94.04336 94.04336 0 0 0-.67895 13.82117C366.32462 331.97242 366.613 336.62062 367.03543 341.28816ZM495.6778 444.71124c.65383 1.70529 1.308 3.3989 1.96206 5.10406a37.21643 37.21643 0 0 0 9.7057-9.53048c-.93441-3.42214-1.84544-6.68061-2.74479-9.79908a16.64754 16.64754 0 0 1-1.2147 5.44267 16.94622 16.94622 0 0 1-1.28457 2.51111 16.0834 16.0834 0 0 1-1.65868 2.31251A17.62722 17.62722 0 0 1 495.6778 444.71124Z"></path>
  <path d="M474.18743 447.54941c-1.83347-.362-3.66723-.70074-5.4776-1.10949l5.11547 10.07937a38.20231 38.20231 0 0 0 23.81456-6.704l-2.13743-5.01054a22.16715 22.16715 0 0 1-4.56656 1.96207 31.23987 31.23987 0 0 1-5.54774 1.16795c-.93442.1286-1.86883.08183-2.81465.14029-.93441.01169-1.88052.10507-2.81493.02338C477.9017 447.91154 476.03287 447.82985 474.18743 447.54941ZM392.99183 452.70009c-.24522 2.89648-.46706 5.80465-.7006 8.70113 8.12886.36214 15.21837.04677 15.21837.04677 0-.73581.61876-4.02936 1.6467-8.98143a65.486 65.486 0 0 1-10.2546.56059C396.92794 453.00376 394.95418 452.88686 392.99183 452.70009ZM494.943 412.16624a.05514.05514 0 0 0 .07007.0117 22.80237 22.80237 0 0 0 3.09509-3.09509c-.04677-.15184-.10515-.30368-.15184-.45551a22.30088 22.30088 0 0 1-3.00163 3.48052A.04063.04063 0 0 0 494.943 412.16624ZM489.33692 384.556q.26271 6.65726.689 13.3146l.63074 9.34357c.25691 3.11839.49052 6.2251.7825 9.34356l-.75919-18.7222c-.15184-3.66737-.3153-7.33466-.44382-11.002C489.93258 386.051 489.6289 385.29181 489.33692 384.556Z"></path>
  <path d="M485.20234 418.34465c.05846.14015.11684.26861.17522.40882 3.352 8.2807 6.669 16.58477 9.89254 24.92392a18.54233 18.54233 0 0 0 4.50825-3.51552 19.16233 19.16233 0 0 0 4.82362-9.67056v-.02338c-1.69353-5.94487-3.317-11.35239-4.87038-16.29285-.05838-.18684-.11677-.36206-.17515-.53721-3.43376 1.72853-6.87922 3.39869-10.313 5.1156C487.90029 418.625 486.5572 418.4848 485.20234 418.34465ZM452.605 414.73574l.44383.876L468.711 446.44542c1.85706.15184 3.70244.36206 5.53612.549 1.8453.16346 3.69068.12846 5.53605.21022.911.02331 1.83368-.11684 2.74464-.15184.911-.07007 1.83369-.05838 2.733-.21022a31.63084 31.63084 0 0 0 5.32583-1.17964 23.21977 23.21977 0 0 0 4.48487-1.88037l-10.69835-25.13421-.17522-.40875c-1.857-.19861-3.72575-.40883-5.59444-.60736l-10.68673-1.16794ZM428.66175 324.11a44.7328 44.7328 0 0 0 1.07 7.65l-8.79-.35-1.73.88c.32-1.58.72-3.13 1.03-4.7.42-1.62.88-3.24 1.34-4.85.56-1.57.99006-3.19 1.68006-4.71a40.59036 40.59036 0 0 1 4.62994-8.74c.44-.69 1.01-1.28 1.5-1.93.54-.61 1.09-1.21 1.68006-1.76l.88995-.82.08-.06a39.60451 39.60451 0 0 0-1.46 3.99 41.70565 41.70565 0 0 0-1.65 7.63A41.23715 41.23715 0 0 0 428.66175 324.11Z"></path>
  <path d="M420.21174 322.36c-.38995 1.67-.7 3.35-1.02 5.02-.22 1.69-.44 3.38-.61005 5.07 0 .06-.00994.11-.00994.17l-4.58 2.33q3.315-17.745 5.05-35.69c.02-.21.03-.41.05-.62 4.16.05 8.32-.15 12.4-.51l3.04-.4.59.12c-.09.8-.42 2.16-.56 3.13a1.07266 1.07266 0 0 0-.39.07 12.78351 12.78351 0 0 0-2.43 1.39l-1.06.82-.99.88995c-.64.61005-1.22 1.27-1.8 1.93-.53.7-1.12 1.35-1.59 2.09a37.33482 37.33482 0 0 0-4.61 9.27C421.06178 319.04 420.70179 320.72 420.21174 322.36ZM440.88178 323.73a.23164.23164 0 0 0-.07-.07.31.31 0 0 0 .07.09 22.21493 22.21493 0 0 1 2.23 3.19c.76 1.24 1.46 2.49 2.15 3.77.3.56.59 1.12.87994 1.7l-7.66-.31-.76-.03-7.99-.31c-.07-1.29-.2-2.56-.24-3.84-.01-1.27-.07-2.54.02-3.82a52.8536 52.8536 0 0 1 .82995-7.54 48.84714 48.84714 0 0 1 1.92005-7.29 42.3557 42.3557 0 0 1 2.41-5.6 11.47785 11.47785 0 0 0 6.69 8.54c.79.35 1.56.74 2.32 1.1.11.05.21.11.32.15a11.78057 11.78057 0 0 0 4.61 1.24c3.84.15 3.84-2.43 3.75-3.27a.43473.43473 0 0 1-.01-.05c-.02-.12-.04-.21-.04-.21h6.71c3.57 0 3.81-2.89 3.76-4.17v-.08c-.03-.3-.06-.5-.06-.5h.48a.33993.33993 0 0 0 .1-.01 5.938 5.938 0 0 0 4.01-1.33s.01995.27.07.79c.24 2.84 1.26 13.13 3.76 27.52l-24.56-.97c-.35-.63-.7-1.24-1.05-1.86-.73-1.26-1.48-2.5-2.27-3.71A22.37562 22.37562 0 0 0 440.88178 323.73ZM393.07486 451.5961c1.95045.22191 3.9009.39706 5.863.5489 1.69354.14015 3.39876.21022 5.09223.24529 1.70522.08177 3.41045.08177 5.1273.08177 1.96214-9.48372 5.40759-25.00576 8.84135-40.25912.09346-.42045.19853-.85258.292-1.273q-6.93763-.75342-13.8752-1.48332-.03507-8.8122.14015-17.636c.11683-6.08495.2336-12.17.47889-18.2433.05839-1.41317.11677-2.81472.18684-4.228-.02338.05846-.035.12853-.05838.18691-.45551 1.36648-.841 2.75634-1.203 4.15789-.5022 1.93875-.93434 3.87758-1.41316 5.81634a410.09905 410.09905 0 0 0-6.377 40.84309c-.81758 6.85584-1.49494 13.72336-2.13736 20.59089Q393.5245 446.27024 393.07486 451.5961Z"></path>
  <path d="M370.03125,443.85261c.71243.47883,1.41324.95773,2.114,1.44824a19.49385,19.49385,0,0,0,2.21912,1.22633c.37375.19853.73582.42045,1.10957.60736l1.17956.47882a21.281,21.281,0,0,0,2.34758.92273c.80589.25691,1.61177.51382,2.406.7825l2.45273.64236c.81757.2336,1.64677.37375,2.476.5489s1.65846.36213,2.49942.4672c1.30809.23361,2.62787.42045,3.94766.584.584-10.45313,1.43655-20.88288,2.48766-31.30093a386.26866,386.26866,0,0,1,6.1434-41.00655c.82927-3.36369,1.57677-6.75076,2.68626-10.04438.04676-.15183.09346-.31529.14022-.46713v-.01169c.38537-1.2614.7825-2.48773,1.203-3.71406v-.01169c.63066-1.88038,2.23081-20.83611,3.69075-27.57518.11676-.56059,3.78413-1.27309,3.92428-1.99721,1.12118-5.466,2.114-10.95534,3.02493-16.468,1.10957-6.54053,2.079-13.12776,2.91987-19.7033.02338-.21022.05845-.40875.08176-.619a92.15824,92.15824,0,0,1-14.40079-1.22632,11.75306,11.75306,0,0,1-9.799-6.3887c-.04677.52559-.10515,1.05118-.16353,1.57677C389.72279,341.78584,377.0623,395.83832,370.03125,443.85261Z"></path>
  <path d="M392.29123 461.40122q.19248-4.36226.432-8.73621c-1.36641-.14014-2.73281-.30367-4.08781-.5372a46.10441 46.10441 0 0 1-9.95092-2.75634 26.91324 26.91324 0 0 1-8.65438-5.5245q-.71812 4.78291-1.33133 9.49554C367.93946 459.077 381.09053 460.8874 392.29123 461.40122ZM435.31884 93.7174s-17.00233 17.223-19.82449 17.223c0 0 .53072 10.24916.53072 13.07132 0 0 22.62167-17.16289 25.7966-23.51276Z"></path>
  <path d="M434.80321 297.67429c-2.51809.13687-5.02564.30981-7.54.35515-2.51325.04847-5.02194.058-7.52806-.00328-2.50527-.06772-5.004-.22013-7.49014-.47548-2.48388-.27017-4.96348-.55717-7.416-1.00427l-.03394-.00627-.12688-.00585a10.275 10.275 0 0 1-4.94068-1.64371 11.42952 11.42952 0 0 1-3.66237-3.826 22.60248 22.60248 0 0 1-2.82406-10.57781 55.91072 55.91072 0 0 1 .64956-11.35482c.282-1.88465.64727-3.77658.97462-5.68675l.91673-5.72367c1.213-7.63784 1.81579-15.34269 2.702-22.9935.88793-7.65823 1.931-15.29821 2.88564-22.945q2.8704-22.94089 6.22353-45.79225c1.12233-7.61417 2.296-15.22193 3.76874-22.767.708-3.77815 1.515-7.53633 2.50156-11.24233.23666-.93057.49244-1.85329.775-2.76817.25521-.92614.57656-1.82477.89564-2.72711a16.16194 16.16194 0 0 1 2.63329-5.02935l-.15255-.159a15.42011 15.42011 0 0 0-3.08182 4.94438c-.38438.89236-.77188 1.78642-1.091 2.70159-.3436.90847-.67778 1.82064-.96008 2.74707-1.17821 3.69345-2.17393 7.438-3.07013 11.20027-1.73567 7.53818-3.17763 15.13368-4.44053 22.7527-2.50755 15.24345-4.2415 30.58785-5.78812 45.938-.775 7.676-1.34644 15.37163-1.994 23.0568L396.575 246.15965c-.36213 3.82976-.911 7.6424-1.60564 11.42625-.6601 3.80509-1.61048 7.494-2.39833 11.31675a54.62 54.62 0 0 0-1.17508 11.65907 22.73811 22.73811 0 0 0 3.00284 11.53774 12.73476 12.73476 0 0 0 10.29908 6.18646l-.16025-.01212a74.83533 74.83533 0 0 0 7.58252.838c2.53692.147 5.07669.18876 7.6099.14442q3.79938-.0541 7.58024-.421c2.51838-.2217 5.02564-.55246 7.51865-.942ZM464.44211 291.8866c2.21528-.51568 4.41259-1.10635 6.60078-1.73324 2.19018-.62988 4.365-1.28286 6.52407-2.066l.4779-.17337-.14029-.57314a47.20557 47.20557 0 0 1-.83889-5.98885l-.55632-6.14954-1.01881-12.326c-.60336-8.22651-1.41631-16.43892-2.27658-24.64932-1.84089-16.41226-2.874-32.88782-3.77416-49.37678q-.72711-12.36309-1.73652-24.70864c-.65811-8.23293-1.34673-16.46372-2.39235-24.6794q-.38751-3.081-.86655-6.16551A35.36454 35.36454 0 0 0 462.995 127.126a42.93844 42.93844 0 0 0-5.78925-11.19984A72.72679 72.72679 0 0 0 439.3176 98.7108l-.12689.18022a87.60449 87.60449 0 0 1 9.02192 8.39446 67.93682 67.93682 0 0 1 7.61132 9.58266 41.10735 41.10735 0 0 1 5.21584 10.86494 35.7586 35.7586 0 0 1 1.21186 5.90089q.42856 3.03805.77159 6.10491c.90362 8.17577 1.71542 16.38574 2.52808 24.593l2.38009 24.63906c1.72968 16.41925 3.17934 32.8633 3.91358 49.36338.432 8.24534.92415 16.488 1.74137 24.70678l1.24836 12.32944c.21842 2.05588.49643 4.10521.78785 6.15695a45.97593 45.97593 0 0 0 1.17821 6.21327l.33732-.74622c-2.08183.83889-4.20671 1.65083-6.33131 2.433-2.13087.77288-4.27657 1.50969-6.42541 2.24707Z"></path>
  <path d="m442.07835 107.97681-7.40944 8.35554c-2.4642 2.78072-4.92157 5.56257-7.44023 8.28369-2.49244 2.7455-5.04076 5.437-7.67206 8.04032a82.887 82.887 0 0 1-8.30935 7.39034 47.69106 47.69106 0 0 0 9.09207-6.552c1.4297-1.21328 2.74421-2.543 4.10092-3.83218 1.30311-1.339 2.61334-2.67378 3.87139-4.05388 2.51582-2.76146 4.94067-5.60177 7.23522-8.54487C437.85653 114.13419 440.04927 111.111 442.07835 107.97681ZM452.30871 128.43753a25.495 25.495 0 0 0-6.01652-1.8885 26.654 26.654 0 0 0-6.33872-.49915 18.67737 18.67737 0 0 0-6.28 1.31466 11.79918 11.79918 0 0 0-5.00027 3.89519 17.13109 17.13109 0 0 1 5.39091-2.81664c.49045-.12019.97633-.24494 1.4568-.38266.48959-.10879.99344-.16867 1.4873-.25606a13.548 13.548 0 0 1 1.49929-.18577 14.40268 14.40268 0 0 1 1.51211-.10109 43.43538 43.43538 0 0 1 6.11375.16311C448.18041 127.8661 450.23287 128.12016 452.30871 128.43753ZM457.60039 266.018c-2.27173.86868-4.53577 1.67849-6.81007 2.43255-2.28057.73153-4.56342 1.432-6.88392 1.95565a51.88231 51.88231 0 0 1-7.01965 1.14186 34.66658 34.66658 0 0 1-7.15537-.23852 19.937 19.937 0 0 0 7.193 1.38479 32.986 32.986 0 0 0 7.31506-.85742 42.328 42.328 0 0 0 6.95606-2.31807A35.43835 35.43835 0 0 0 457.60039 266.018ZM410.68191 182.80824a1.10307 1.10307 0 0 1 0-2.20482 1.10307 1.10307 0 0 1 0 2.20482ZM406.44867 214.91035a1.10307 1.10307 0 0 1 0-2.20482 1.10307 1.10307 0 0 1 0 2.20482ZM402.56819 239.60427a1.10307 1.10307 0 0 1 0-2.20481 1.10307 1.10307 0 0 1 0 2.20481ZM397.98218 269.58975a1.10307 1.10307 0 0 1 0-2.20481 1.10307 1.10307 0 0 1 0 2.20481ZM468.7127 300.222l-3.13828.09182a8.01078 8.01078 0 0 1-3.03507-.27217 6.67329 6.67329 0 0 1-2.61162-1.57841l-2.32734-2.10706 2.20017 2.23951a6.95008 6.95008 0 0 0 2.617 1.79269 8.46579 8.46579 0 0 0 3.15682.47662l3.13828.09182ZM462.71557 306.04267l-3.29454.08141a6.40235 6.40235 0 0 1-3.04048-.8724 9.50377 9.50377 0 0 1-2.38921-2.19745l-2.21157-2.46478 2.07156 2.58354a9.75868 9.75868 0 0 0 2.33475 2.39049 6.86256 6.86256 0 0 0 3.20359 1.11092l3.3259.10322ZM452.39511 310.81539c-.9826-.2237-2.04077-.38951-2.96121-.66053a6.442 6.442 0 0 1-2.50413-1.52851 11.08816 11.08816 0 0 1-1.71028-2.4826l-1.55346-2.644 1.39235 2.73224a11.34636 11.34636 0 0 0 1.60507 2.6477 6.90213 6.90213 0 0 0 2.58311 1.79355c1.022.36541 1.982.56558 2.976.85657ZM443.13679 275.93962a1.10307 1.10307 0 0 1 0-2.20481 1.10307 1.10307 0 0 1 0 2.20481ZM424.13687 233.84461a49.60933 49.60933 0 0 1-6.18846-1.72283 16.642 16.642 0 0 1-2.79525-1.34345 3.47554 3.47554 0 0 1-1.70744-2.01881l-1.10008-5.80252-.207 5.91814c-.15255 4.37039.2994 8.74833.215 13.11729-.03678 4.36953-.46592 8.73521-.562 13.10859l-.10579 6.56442.01882 1.64414a15.38285 15.38285 0 0 0 .07471 1.72354A6.46182 6.46182 0 0 0 413.3 268.36259a6.30807 6.30807 0 0 0 3.08211 1.8992 18.18187 18.18187 0 0 0 3.35015.48888 11.42724 11.42724 0 0 0 3.3798-.2716 4.21766 4.21766 0 0 0 2.71085-1.95209l-.124-.07913a4.01188 4.01188 0 0 1-2.71969 1.39064 10.78494 10.78494 0 0 1-3.14655-.08939 23.777 23.777 0 0 1-3.08924-.692 5.14784 5.14784 0 0 1-3.4086-4.22682c-.05189-.439-.04933-1.00456-.06187-1.54832l-.02681-1.63259-.13544-6.54389c-.06644-4.36554-.39835-8.73835-.31423-13.10688.03878-4.3691.63815-8.72894.66182-13.09576l-1.30681.11563a4.60117 4.60117 0 0 0 2.36041 2.80381 13.94094 13.94094 0 0 0 3.12659 1.25491 26.36219 26.36219 0 0 0 6.48358.9136ZM437.7254 332.06852l.75912.03507c.841-2.97832 1.65854-5.81641 2.39435-8.35084v-.02338c1.36647-4.68347 2.46434-8.35077 3.01324-9.97423.03508-.10514.07008-.21022.10515-.292 0-.0117.01169-.02339.01169-.03508l-.32706-.11676-.36206-.12846c-.035.08176-.05838.17515-.09345.2803C442.3738 315.95089 440.17806 323.44908 437.7254 332.06852ZM506.3855 441.615c.32991 1.4595.75592 2.88921 1.20673 4.31064.45052 1.422.97633 2.8175 1.49443 4.21741.57285 1.37795 1.13943 2.76161 1.81893 4.09779.34417.66552.7043 1.32477 1.1055 1.9625a10.89321 10.89321 0 0 0 .67322.91231 1.54728 1.54728 0 0 0 .91844.633c-.67037-.31537-.941-1.09267-1.27829-1.72326-.32934-.659-.62789-1.33576-.90561-2.022-.56516-1.36769-1.13259-2.73752-1.649-4.129l-1.64841-4.14014C507.56143 444.35653 507.00255 442.9773 506.3855 441.615ZM488.58916 454.42493a21.82409 21.82409 0 0 0 1.21984 3.66081c.25178.58625.50727 1.17037.78072 1.7455.25492.58483.58141 1.13159.78842 1.74778a5.24437 5.24437 0 0 0-.25035-1.94638 15.721 15.721 0 0 0-.64129-1.83062A15.48146 15.48146 0 0 0 488.58916 454.42493Z"></path>
  <path d="M453.808 506.96836s30.3549-2.114 56.18985-19.31779l3.60891 2.114s9.51878-3.43376 12.96424-6.085l-3.17685-6.34194s-3.17678-20.404-8.19893-19.32948c-5.03385 1.07449-4.263 10.3246-10.59328 8.73621-5.174-1.28471-9.32025-6.82076-13.31461-6.43539-.15183.01169-.292.03507-.44382.05838h-.01169a4.85906 4.85906 0 0 0-2.24244 1.21471c-4.6017 4.12281-21.32669 25.76487-35.4238 30.88048a10.34138 10.34138 0 0 0-5.85142 5.05715C445.77256 500.66143 445.77256 504.73762 453.808 506.96836Zm56.18985-22.49464a16.70507 16.70507 0 0 0 2.90817-1.2964l2.8031-1.495a51.27289 51.27289 0 0 1 5.828-2.75634 23.33688 23.33688 0 0 1-5.27913 3.78413 22.19772 22.19772 0 0 1-3.00163 1.3081A6.88371 6.88371 0 0 1 509.99788 484.47372Zm-31.02064-1.0278a9.08922 9.08922 0 0 1 1.92707 1.31979 6.39792 6.39792 0 0 1 1.48332 1.822c-1.38986-.72412-2.63957-1.44824-3.94767-2.10229-.64235-.33868-1.2964-.66573-1.96214-.99272s-1.34316-.63074-2.03221-1.0278A8.27 8.27 0 0 1 478.97724 483.44592Zm2.406-5.89811a12.48888 12.48888 0 0 1 2.73295 1.13295 15.97785 15.97785 0 0 1 2.42935 1.67015 12.08586 12.08586 0 0 1 2.0439 2.114c-1.7753-.86427-3.37538-1.85706-5.03384-2.768a29.37019 29.37019 0 0 0-5.139-2.35927A6.71935 6.71935 0 0 1 481.38321 477.54781Zm14.76285-.21022c-2.371-.88765-4.59009-1.95045-6.84422-2.93155-1.12118-.5139-2.24243-.981-3.37531-1.42486a12.671 12.671 0 0 0-3.5389-.93442 7.21916 7.21916 0 0 1 3.79582.05846 21.0549 21.0549 0 0 1 3.59729 1.22633A25.86463 25.86463 0 0 1 496.14606 477.33759ZM453.808 501.117c4.25127-.66574 8.47923-1.3081 12.62549-2.3242a127.45215 127.45215 0 0 0 24.1998-8.2457 101.13962 101.13962 0 0 0 11.32908-6.01495 56.98486 56.98486 0 0 1-5.29082 3.67906c-1.84531 1.10956-3.72575 2.17236-5.65282 3.14178a90.23086 90.23086 0 0 1-24.3984 8.31576c-2.114.44383-4.25134.70074-6.377.98111-1.0628.15184-2.149.19853-3.22347.2803C455.957 501.00018 454.88252 501.07025 453.808 501.117ZM403.01975 461.56377a52.90987 52.90987 0 0 0-1.29483 6.49556 52.25823 52.25823 0 0 0-.56772 6.59892 52.30815 52.30815 0 0 0 1.29484-6.49556A52.90808 52.90808 0 0 0 403.01975 461.56377ZM382.68051 460.59443c-.4876 1.98288-.81066 3.971-1.16852 5.94893-.16909.99016-.35329 1.97533-.55945 2.95123a14.51913 14.51913 0 0 1-.38152 1.43612 3.28153 3.28153 0 0 1-.28457.67223.64273.64273 0 0 1-.56.38608.67548.67548 0 0 0 .71342-.26618 3.513 3.513 0 0 0 .45994-.645 8.89287 8.89287 0 0 0 .60536-1.43 21.60783 21.60783 0 0 0 .73025-2.97633A29.036 29.036 0 0 0 382.68051 460.59443Z"></path>
  <path d="M324.96027 494.14435a9.64749 9.64749 0 0 0 4.4148 3.22354 40.47914 40.47914 0 0 0 5.81634.42044c1.93883.05838 3.88928.02331 5.82811-.02338 3.88921-.14015 7.7668-.31537 11.65608-.53728l11.66776-.70074c3.88928-.2336 7.77856-.49052 11.67946-.67743-3.85421.66574-7.72011 1.14464-11.60939 1.56508-3.87758.44382-7.76679.73581-11.66776.981-3.901.1986-7.81356.33875-11.72615.26868a48.78012 48.78012 0 0 1-11.64445-1.2964c13.10438 5.64112 46.64775 3.24685 46.64775 3.24685l6.6573-5.29076c7.97709-4.49663 9.60048 5.29076 9.60048 5.29076h13.41975a23.6 23.6 0 0 1 0-14.027c2.03222-6.75069-3.45714-11.60938-4.49663-12.0999-.01169-.01169-.02338-.01169-.035-.02338-.16353-.07007-.18691 0-.01169.1986-15.86072 8.99313-21.43185-2.663-21.43185-2.663-1.12118.17522-5.01046 3.971-18.50021 8.54937a17.473 17.473 0 0 1 4.08781 2.55781 18.10089 18.10089 0 0 1 3.36368 3.44545 17.75109 17.75109 0 0 1-4.0995-2.54611 17.13753 17.13753 0 0 1-3.352-3.45715c-2.20744.7475-4.67179 1.51832-7.43981 2.30082a13.29154 13.29154 0 0 1 3.60891 2.079 12.78079 12.78079 0 0 1 2.88486 2.98994 15.049 15.049 0 0 1-6.49377-5.06892q-2.94321.841-6.34194 1.68184C322.57762 490.66382 324.96027 494.14435 324.96027 494.14435Zm69.04894.11676c.911-.09345 1.75191-.2686 2.61618-.42044.86427-.17522 1.71685-.31537 2.58119-.45552a29.45765 29.45765 0 0 1 5.30245-.43213 17.34672 17.34672 0 0 1-5.11561 1.58839 15.91 15.91 0 0 1-2.68626.1986A6.52818 6.52818 0 0 1 394.00921 494.26111Zm-23.978-16.87683a15.16381 15.16381 0 0 1 3.8659 2.06729 14.95983 14.95983 0 0 1 3.18854 3.01332 14.69527 14.69527 0 0 1-3.87759-2.06729A14.346 14.346 0 0 1 370.03125 477.38428ZM426.63045 138.24915a2.524 2.524 0 0 0-.60736.97548 7.08308 7.08308 0 0 0-.38066 1.05018 19.3079 19.3079 0 0 0-.56459 2.15326c-.3627 1.44211-.52523 2.915-.79726 4.37366l-.54433 4.4086-.39065 4.42228c-.26119 2.9498-.35158 5.90617-.53578 8.86025l-.30511 8.86823c-.08155 5.913-.17279 11.82858-.10265 17.74045l.06245 8.86937.23011 8.8651c.0901 2.95451.13658 5.91073.26262 8.86367l.39805 8.85811c.24494 5.906.57029 11.80776.90647 17.70866l1.84973 35.4099.00827.161.13829.06358a29.00875 29.00875 0 0 0 9.27884 2.49329 24.63344 24.63344 0 0 0 9.57966-.913 13.17052 13.17052 0 0 0 2.28314-.81352 14.3346 14.3346 0 0 0 2.19988-1.02109l2.1035-1.21785c.6621-.4625 1.2877-.97861 1.93327-1.46678l.9615-.74294c.30653-.2629.57684-.565.86712-.84587l1.71285-1.71756c1.07585-1.20116 2.008-2.52409 3.01881-3.78356l.09267-.11548.00742-.19305c.444-11.37848.65525-22.75783.83946-34.14045.18676-11.38248.148-22.768.03678-34.153q-.21813-17.07756-1.21842-34.1403c-.36156-5.684-.79469-11.36651-1.47789-17.02689-.353-2.82833-.79156-5.64925-1.37724-8.44294a40.47263 40.47263 0 0 0-1.07043-4.14726 11.04149 11.04149 0 0 0-1.90247-3.8336l-.1075.10008a10.87867 10.87867 0 0 1 1.73908 3.8165 40.06986 40.06986 0 0 1 .92957 4.14484c.49872 2.79226.8272 5.61417 1.11377 8.43866.58426 5.64925.9193 11.32545 1.18334 17.00236.51611 11.35753.6122 22.732.704 34.10324.11263 11.3725.00627 22.74685-.05788 34.12149-.07585 11.37435-.28372 22.7507-.49359 34.12149l.10009-.3081c-.96036 1.232-1.84431 2.53521-2.86654 3.71513l-1.62817 1.68562c-.27573.27616-.53236.57456-.82406.83276l-.91474.729c-.6142.47947-1.209.9893-1.83974 1.44624l-2.00513 1.20388a13.60175 13.60175 0 0 1-2.10179 1.01739 12.50165 12.50165 0 0 1-2.18761.8205 23.94256 23.94256 0 0 1-9.27428 1.04205 27.64671 27.64671 0 0 1-9.09264-2.29069l.14628.22426c-.67493-11.79765-1.35528-23.59672-1.73082-35.40834-.20844-5.90488-.40433-11.80976-.52751-17.7165l-.424-17.71579c-.27431-11.80962-.47305-23.6191-.37525-35.42659l.126-8.85354c.12432-2.94653.15511-5.90175.35614-8.84357l.25977-4.41715.39235-4.4056c.2207-1.45338.33305-2.93213.64357-4.36925a19.12129 19.12129 0 0 1 .4856-2.14869 6.95368 6.95368 0 0 1 .33761-1.04263l.20986-.50427a2.59342 2.59342 0 0 1 .29313-.41275ZM403.06078 410.07558a.68149.68149 0 0 0 .59567.67743h.01162c4.77693.51389 9.55385.9811 14.33071 1.45993q3.53891.3504 7.05437.70081c7.1362.72412 14.26064 1.40147 21.39677 2.0789l6.59892.619 14.80954 1.40148 10.69835 1.05118c1.93883.19853 3.87759.38544 5.81642.584.33868.035.66573.07007 1.00441.10514 1.29641.14015 2.58119.2803 3.87759.42045a.17335.17335 0 0 0 .10508-.02338c3.45714-1.64678 6.90259-3.32862 10.37136-4.97546.63073-.30368 1.2614-.60729 1.89206-.89927l12.2985-5.81642a.449.449 0 0 0 .25692-.44382v-.0117c-.5489-6.03825-1.17957-12.06482-1.79861-18.09146s-1.3081-12.04152-1.96214-18.06808c-.64236-6.01495-1.35479-12.04152-2.0556-18.05647-.63066-5.53605-1.31978-11.0721-2.03221-16.60815q-.07-.70082-.17522-1.40155v-.03507a.0654.0654 0 0 0-.07008-.05838c-.035.01169-.05838.03507-.04669.07007.04669.52559.08177 1.03949.12846 1.56508.46721 5.51267.946 11.0371 1.48331 16.54977.57228 6.02664 1.12126 12.06489 1.75192 18.09146.619 6.02664 1.19133 12.05321 1.84538 18.07985.654 5.9098 1.28471 11.83122 1.99714 17.74109l-11.878 5.9565c-.60735.30367-1.203.60735-1.8103.89934-3.43376 1.72853-6.87922 3.39869-10.313 5.1156-1.34317-.12852-2.68626-.26867-4.04112-.40882-.327-.035-.66566-.07007-1.00441-.10507-1.857-.19861-3.72575-.40883-5.59444-.60736l-10.68673-1.16794L452.605 414.73574l-6.04995-.68912q-10.68677-1.20884-21.37338-2.35927-3.45133-.36784-6.89091-.74743-6.93763-.75342-13.8752-1.48332-.03507-8.8122.14015-17.636c.11683-6.08495.2336-12.17.47889-18.2433.05839-1.41317.11677-2.81472.18684-4.228.07008-1.43655.14015-2.88479.22192-4.333v-.01169c.17522-3.22354.38544-6.43539.66573-9.64724.26861-3.025.584-6.05 1.00442-9.06327a40.918 40.918 0 0 1 2.079-8.84136v-.02331a.04081.04081 0 0 0-.01169-.02338c0-.01169-.01169-.02338-.02338-.03507a.06039.06039 0 0 0-.08177.03507 39.91044 39.91044 0 0 0-2.39427 8.818c-.5489 3.01332-.93435 6.03826-1.273 9.06327-.50228 4.47325-.876 8.95813-1.168 13.44307v.01169c-.09346 1.60008-.18691 3.17678-.26868 4.77686 0 .05838-.01169.11683-.01169.17522-.31529 6.03825-.57228 12.06489-.70074 18.10315C403.13086 397.89391 403.04909 403.97894 403.06078 410.07558Z"></path>
  <path d="m488.76463 351.04763.08177 9.36695c.05838 6.23679.17515 12.47365.28029 18.73382.05839 1.79861.12846 3.609.21023 5.4076q.26271 6.65726.689 13.3146l.63074 9.34357c.25691 3.11839.49052 6.2251.7825 9.34356l-.75919-18.7222c-.15184-3.66737-.3153-7.33466-.44382-11.002q-.15762-3.85424-.24523-7.70848l-.49051-18.72213-.31537-9.367c-.12846-3.11839-.23361-6.24848-.39714-9.36687C488.75294 344.79915 488.77625 347.91755 488.76463 351.04763ZM494.943 412.16624a.05514.05514 0 0 0 .07007.0117 22.80237 22.80237 0 0 0 3.09509-3.09509c.3036-.37375.59559-.7475.86427-1.14456a17.39115 17.39115 0 0 0 2.45265-5.27914 2.13467 2.13467 0 0 1 .11684-.32706l.05838-.16346.05839-.2336a6.51137 6.51137 0 0 0 .07007-.77088c.02338-.50221.03507-.981.04669-1.45994.01169-.96934 0-1.93875 0-2.89648-.035-1.93876-.08169-3.86589-.15184-5.78134-.14014-3.85421-.37368-7.70841-.584-11.55093-.14015-2.41766-.3036-4.847-.47882-7.26466.327 2.03222.63066 4.07612.911 6.10833l1.36647 10.37137c.49052 3.44545 1.07449 6.87921 1.62346 10.32467a10.50185 10.50185 0 0 0 1.88038 4.96377 4.6969 4.6969 0 0 0 4.76524 1.78691.06416.06416 0 0 0 .035-.05838.0626.0626 0 0 0-.04669-.035h-.01169a4.56867 4.56867 0 0 1-2.49942-.35037 4.86267 4.86267 0 0 1-1.89207-1.61177 10.1895 10.1895 0 0 1-1.58839-4.77693c-.50221-3.44545-.95772-6.90252-1.53-10.348l-1.7753-10.313q-.85842-5.15064-1.54169-10.3246v-.02338a.19743.19743 0 0 0-.22191-.16353.18334.18334 0 0 0-.16353.19853v.02339l.38544 11.52761.44382 11.551.22192 5.758c.03507.95773.07007 1.92714.08176 2.88479 0 .4789.01169.95773 0 1.42494a5.58884 5.58884 0 0 1-.04669.66573l-.01169.11677-.05839.17522c-.04676.12846-.08176.24522-.11683.36206-.26861.93434-.52559 1.83368-.876 2.72133a15.58536 15.58536 0 0 1-1.2964 2.52273c-.19854.31537-.40876.63067-.64236.93435a22.30088 22.30088 0 0 1-3.00163 3.48052A.04063.04063 0 0 0 494.943 412.16624Z"></path>
  <path d="M471.14029,333.38828l17.46063.38831,17.4556.516a.46169.46169,0,0,1,.16037.8891l-.00638.0025-17.221,6.98761a.55711.55711,0,0,1-.2305.03815c-6.63867-.33716-13.2789-.64533-19.91458-1.0387l-19.91-1.12341c-13.27027-.80725-26.53967-1.63043-39.80033-2.61841,13.29059.42523,26.57242,1.01526,39.8534,1.62128l19.91681.99634c6.63995.31329,13.27536.71173,19.91229,1.08111l-.2301.03809,17.27981-6.84076.154.89148-17.4425-.85047Z"></path>
  <path d="M490.38806,334.142c-.34118-2.17548-.71054-4.34076-1.16446-6.48926-.42309-2.153-.89715-4.29462-1.4487-6.41425a88.97542,88.97542,0,0,0-4.06921-12.44189,45.06414,45.06414,0,0,0-2.89115-5.8335,30.27073,30.27073,0,0,0-3.79245-5.24457,16.57986,16.57986,0,0,0-11.3302-5.66076,14.70269,14.70269,0,0,1,6.49888,1.20007,18.71933,18.71933,0,0,1,5.47921,3.83826,35.3519,35.3519,0,0,1,7.11133,11.24719A70.23832,70.23832,0,0,1,488.646,321.036,82.58444,82.58444,0,0,1,490.38806,334.142Z"></path>
  <path d="M478.41663,341.117c.2973-2.31982.55667-4.63891.725-6.96539.20087-2.32227.33957-4.6485.394-6.97455a83.2479,83.2479,0,0,0-.59629-13.8916,36.25092,36.25092,0,0,0-3.92706-13.14838,16.6364,16.6364,0,0,0-10.57022-8.25055,15.6359,15.6359,0,0,1,6.52719,2.57312,18.05174,18.05174,0,0,1,4.81628,5.22,26.35486,26.35486,0,0,1,2.82849,6.52325,44.47417,44.47417,0,0,1,1.48179,6.92914,75.241,75.241,0,0,1,.3331,14.08765A86.95942,86.95942,0,0,1,478.41663,341.117Z"></path>
  <line x1="419.212" x2="418.572" y1="332.29" y2="332.62" fill="none"></line>
  <path d="M433.01537,281.71113a37.35217,37.35217,0,0,0-.73282,4.07313,21.83849,21.83849,0,0,0-.1708,4.1752,8.2473,8.2473,0,0,0,.37838,2.13843c.25435.73011.51868,1.26561.73054,1.92686a19.94741,19.94741,0,0,1,1.002,3.84829l.00086-.16211c-.23439,1.29341-.24209,2.62446-.36727,3.94011a11.45226,11.45226,0,0,0,.66268,4.02536,11.714,11.714,0,0,0,5.09807,6.139,15.11651,15.11651,0,0,0,1.79982.86954l1.769.77174a17.68592,17.68592,0,0,0,3.72254,1.28015,7.41184,7.41184,0,0,0,3.95864-.157,2.70005,2.70005,0,0,0,1.49643-1.41445,3.56529,3.56529,0,0,0,.1996-2.05631l-.25093.3175c2.29569-.00171,4.56942.10993,6.88307.13445a3.93294,3.93294,0,0,0,3.37752-1.55417,5.36251,5.36251,0,0,0,.72169-3.698l-.5911.69161a9.65052,9.65052,0,0,0,2.59737-.20815,5.50985,5.50985,0,0,0,2.45223-1.21685,5.08178,5.08178,0,0,0,1.46905-2.37439,6.66388,6.66388,0,0,0,.20246-2.74065l-.4377.79741a17.87393,17.87393,0,0,0,2.38921-1.16039,5.27865,5.27865,0,0,0,2.10322-2.06615,2.44245,2.44245,0,0,0,.10465-1.80652,3.45949,3.45949,0,0,0-.91759-1.35942,4.732,4.732,0,0,0-2.73738-1.207,7.58978,7.58978,0,0,1-4.23693-1.60065,5.79737,5.79737,0,0,1-1.97519-3.89762l-.00371.06815.10351-2.21029c-.02281-.73966-.04391-1.4796-.0921-2.21684a16.74033,16.74033,0,0,0-1.002-4.32947,11.5081,11.5081,0,0,0-2.31194-3.77743,8.7334,8.7334,0,0,0-3.6504-2.40233l-.04334.14043a8.88153,8.88153,0,0,1,3.27315,2.6256,11.6983,11.6983,0,0,1,1.91844,3.7003,16.797,16.797,0,0,1,.69319,4.12388c.01739.701.00941,1.40447.00456,2.10478l-.18164,2.10464-.00428.0499.00058.01868a7.04536,7.04536,0,0,0,2.29311,5.01053,9.09758,9.09758,0,0,0,5.05217,2.05232,3.19545,3.19545,0,0,1,1.83033.78942,1.94821,1.94821,0,0,1,.50356.71086.85438.85438,0,0,1-.04334.66324,3.94188,3.94188,0,0,1-1.477,1.43113,16.489,16.489,0,0,1-2.14627,1.09823l-.52409.23353.08611.5643a5.34264,5.34264,0,0,1-.118,2.10649,3.70655,3.70655,0,0,1-1.02594,1.75862,5.94539,5.94539,0,0,1-4.11775,1.25064l-.70431-.0067.11292.69846a4.54233,4.54233,0,0,1-.41289,2.93226,3.02041,3.02041,0,0,1-2.558,1.3c-1.12062.05161-2.28371.06444-3.42343.09852-1.14513.0355-2.29055.05275-3.43569.05845l-.31308.00143.06159.31622a3.09092,3.09092,0,0,1-.13858,1.74807,2.23,2.23,0,0,1-1.22726,1.19446,6.67358,6.67358,0,0,1-3.68205.07143,14.52867,14.52867,0,0,1-3.52579-1.41445c-1.13088-.62689-2.3607-1.13031-3.369-1.80838a11.43058,11.43058,0,0,1-4.36611-5.77186,11.59072,11.59072,0,0,1-.60564-3.58368c.09381-1.25748.06416-2.52451.26233-3.78327l.01369-.0874-.01283-.07528a20.86693,20.86693,0,0,0-1.162-4.08139c-.24323-.6353-.61591-1.3215-.84117-1.8771a7.37139,7.37139,0,0,1-.44254-1.88194,27.75332,27.75332,0,0,1-.11691-4.04789c.04819-1.363.16652-2.72853.3128-4.09123Z"></path>
  <line x1="389.272" x2="389.292" y1="206.154" y2="206.128" fill="none"></line>
  <path d="M366.18528,277.46272a34.43341,34.43341,0,0,0-.35923,6.686,46.44058,46.44058,0,0,0,.52316,4.914c.08853.58994.17474,1.19457.26319,1.78487.0172.15433.05176.29634.08359.45333.31494,2.08121.691,4.15883,1.131,6.21786a47.03442,47.03442,0,0,0,1.82859,6.45062,14.73973,14.73973,0,0,0,1.38964,2.89684c.53624.86855,1.30263,1.552,1.8967,1.52466a.15837.15837,0,0,1,.0759-.00164l.05834.01065c.22191.02575.73926-.40864.85277-1.27921a9.58524,9.58524,0,0,0-.04363-2.74156c-.22185-1.92851-.87986-3.7858-1.26256-5.91a22.63793,22.63793,0,0,1-.30287-6.36875,18.943,18.943,0,0,1,.29492-2.03039c.084-.3774.168-.7548.2666-1.12953.044-.15828.09061-.33083.14907-.48648a7.3495,7.3495,0,0,1,1.3654-2.681,3.30968,3.30968,0,0,1,1.86395-1.10981,3.571,3.571,0,0,1,2.133.31365,4.03277,4.03277,0,0,1,1.538,1.33789,4.54182,4.54182,0,0,1,.47262.88682l.14332.37352.14047.38812c.089.25779.16585.49859.2547.75634a22.72706,22.72706,0,0,1,.97335,5.50947,17.94433,17.94433,0,0,1-.15218,3.23462c-.07214.561-.09511.9344-.13659,1.41027a10.09541,10.09541,0,0,0,.08417,1.35948,9.2303,9.2303,0,0,0,.704,2.68137,6.33427,6.33427,0,0,0,1.41016,2.20547,2.24911,2.24911,0,0,0,.8487.56272c.141.056.22731-.00387.35348.04939.10642-.08605.2035-.03809.3271-.13649.11432-.13033.254-.15019.359-.3121l.35658-.46373a9.58588,9.58588,0,0,0,.58284-1.20752,10.91171,10.91171,0,0,0,.79036-5.49c-.03566-.2178-.08614-.43831-.13655-.65918l-.1589-.78421c-.102-.51717-.204-1.034-.27142-1.57507a20.00015,20.00015,0,0,1-.139-3.21216,14.65475,14.65475,0,0,1,.5059-3.18556c.07859-.34778.15463-.68164.24257-.99784q.13965-.51825.27165-.99253c.09061-.33083.18122-.66167.26916-.97787,1.97459-7.67524,1.96938-16.08937-1.19158-23.43288l-.012-.0173a.75812.75812,0,0,1,.01373-.57128c3.0939-6.27769,7.32559-10.4546,10.45805-16.695l-.75447,3.68551c-2.83769,6.27908-5.37128,7.06363-8.279,13.31444a37.70165,37.70165,0,0,1,1.53924,24.17594,2.00508,2.00508,0,0,1-.0826.28694c-.0707.3046-.156.60617-.25855.9197a2.23544,2.23544,0,0,1-.08509.3016c-.13728.50375-.22.957-.33723,1.43377a12.32511,12.32511,0,0,0-.4272,2.83706,16.78236,16.78236,0,0,0,.15371,2.883c.06343.47989.14167.96249.25156,1.43538l.15513.723a7.25661,7.25661,0,0,1,.16553.83078,12.67491,12.67491,0,0,1-.84934,6.476,5.74415,5.74415,0,0,1-2.11245,2.96761,3.42271,3.42271,0,0,1-1.07415.42313,3.87284,3.87284,0,0,1-1.15889-.10565,4.04175,4.04175,0,0,1-1.71628-1.02305,8.42121,8.42121,0,0,1-1.89082-2.88246,11.36543,11.36543,0,0,1-.86439-3.20883,11.79162,11.79162,0,0,1-.11856-1.66814c.0229-.53973.09636-1.19083.14731-1.63473a15.38966,15.38966,0,0,0,.10013-2.86651,21.36394,21.36394,0,0,0-.98656-5.27035,3.116,3.116,0,0,0-.12092-.41442l-.2414-.66356-.06365-.14732a1.41153,1.41153,0,0,0-.18319-.32069,1.9176,1.9176,0,0,0-.72535-.6608,1.48333,1.48333,0,0,0-.83572-.13775,1.21211,1.21211,0,0,0-.70077.44627,4.3576,4.3576,0,0,0-.62918,1.04824,8.19389,8.19389,0,0,0-.526,1.47492,22.63785,22.63785,0,0,0-.44823,2.62193,21.50979,21.50979,0,0,0,.23809,5.81338c.32051,1.886,1.01023,3.89994,1.24134,6.02633a10.23257,10.23257,0,0,1-.03652,3.34644,4.1183,4.1183,0,0,1-.79734,1.803,2.512,2.512,0,0,1-2.05662.92383l-.14875-.01239a3.369,3.369,0,0,1-1.97046-.87289,7.03811,7.03811,0,0,1-1.24962-1.512,18.16923,18.16923,0,0,1-1.50352-3.265,52.39569,52.39569,0,0,1-1.74878-6.72332c-.40783-2.06829-.73759-4.1522-1.00875-6.22579-.02638-.18587-.05553-.3575-.08191-.54337-.08347-.61962-.152-1.23616-.2355-1.85578-.19694-1.65183-.39114-3.31865-.42853-5.01733a35.71641,35.71641,0,0,1,.52144-6.91306,50.08691,50.08691,0,0,1,1.74391-6.65974l4.09214-14.81861.81728.23985L367.76176,270.893"></path>
  <path d="M388.261,262.02158a20.627,20.627,0,0,1-5.26218.29267,18.31373,18.31373,0,0,1-5.19858-1.16089,17.28473,17.28473,0,0,1-4.66879-2.66821,16.757,16.757,0,0,1-3.7113-4.00678l-.20444-.3183.20843-.38006q3.88518-7.0839,7.92823-14.07312l4.07061-6.97418,4.14573-6.93006q4.1877-6.90527,8.52294-13.722c2.9151-4.52906,5.88508-9.02491,8.968-13.44751q-3.824,7.12572-7.79977,14.15039-3.97853,7.02521-8.03806,14.00055l-4.07962,6.964-4.12643,6.93664q-4.14318,6.92643-8.37732,13.80048l.004-.698a16.2958,16.2958,0,0,0,3.22418,3.81634,18.1458,18.1458,0,0,0,4.25741,2.78565A20.05078,20.05078,0,0,0,388.261,262.02158Z"></path>
  <polyline fill="none" stroke="#000" stroke-linecap="round" stroke-linejoin="round" points="339.414 334.926 331 408.627 354.013 416.729 377.086 413.638"></polyline>
  <path d="M399.04709,300.95689a8.07335,8.07335,0,0,0-2.04883-2.95349,16.52632,16.52632,0,0,0-2.81287-2.24909,41.03463,41.03463,0,0,0-6.37332-3.40619l-1.10257-.47314,1.07251-.43646a8.15024,8.15024,0,0,1,3.69425-.53779,10.222,10.222,0,0,1,3.52292.93531,14.18337,14.18337,0,0,1,3.02172,1.94055c.44834.392.85987.8233,1.28714,1.22974.39179.44421.7721.89624,1.14423,1.34991-.44992-.383-.89142-.76782-1.322-1.15991-.4711-.3468-.922-.71472-1.40161-1.03815a14.13,14.13,0,0,0-3.023-1.62384,10.89347,10.89347,0,0,0-3.28342-.69733,7.60672,7.60672,0,0,0-3.2041.49762l-.03006-.90948a35.10329,35.10329,0,0,1,3.34033,1.65192,26.32448,26.32448,0,0,1,3.10919,2.045,17.03144,17.03144,0,0,1,2.7277,2.54645A7.52174,7.52174,0,0,1,399.04709,300.95689Z"></path>
  <path fill="#020202" d="M438.82767 99.36a6.96414 6.96414 0 0 1-2.60178-1.95755 9.03217 9.03217 0 0 1-1.65866-2.86483 9.86563 9.86563 0 0 1-.52808-3.25779 11.05256 11.05256 0 0 1 .13059-1.631 15.04067 15.04067 0 0 1 .40054-1.57406c.041.54553.02054 1.07476.04325 1.60168.05685.52646.04037 1.04993.1311 1.563a14.27313 14.27313 0 0 0 .67633 2.99783 12.25993 12.25993 0 0 0 1.36438 2.73792A12.59508 12.59508 0 0 0 438.82767 99.36ZM416.68 120.66111l-1.03595-9.13922-.528-4.56622a11.3498 11.3498 0 0 0-.38263-2.20945 3.88739 3.88739 0 0 0-1.20819-1.699 4.181 4.181 0 0 0-1.85028-.85822 3.95325 3.95325 0 0 0-1.009-.04913c-.16909.00714-.32943.04755-.50107.06873l-.60729.09622a12.51142 12.51142 0 0 1-12.26087-6.45618.86568.86568 0 0 1 .20288-1.04117l.0108-.00915c1.15781-1.01081 2.31513-2.057 3.39374-3.13083.26859-.26883.53116-.54071.77689-.81314a5.14194 5.14194 0 0 0 .58844-.74851c.00769-.01471.00955-.02215.00342-.00412a.55511.55511 0 0 0-.0152.302.795.795 0 0 0 .21408.40893.85659.85659 0 0 0 .17514.13187.92957.92957 0 0 0 .14108.05887.49256.49256 0 0 0 .18726.02505l-.45606.11127c-.40081.09085-.79364.16785-1.19046.2388a23.03127 23.03127 0 0 1-2.419.31021 9.38091 9.38091 0 0 1-1.29767.00815 4.07872 4.07872 0 0 1-.75208-.1228 1.59326 1.59326 0 0 1-1.0285-.7421 1.49364 1.49364 0 0 1-.02069-1.25317 1.90442 1.90442 0 0 0 .07461-.39225 1.6044 1.6044 0 0 0-.08862-.739 1.95344 1.95344 0 0 0-1.19458-.99777l.18735.04559a6.33979 6.33979 0 0 1-3.44119-1.57938 3.40206 3.40206 0 0 1-.99457-1.88406 3.68562 3.68562 0 0 1-.01187-1.05139 2.60113 2.60113 0 0 1 .04245-.2587l.02557-.1297.01315-.0647.02512-.08819.01825-.04981a3.24853 3.24853 0 0 1 .25549-.49463 11.84792 11.84792 0 0 1 2.41379-2.56015 14.13947 14.13947 0 0 0 2.18323-2.25891 13.74065 13.74065 0 0 0 2.62494-5.72348 45.28028 45.28028 0 0 0 .87866-6.51 34.93761 34.93761 0 0 1-.15021 6.6171 13.69167 13.69167 0 0 1-2.33685 6.35367 15.49069 15.49069 0 0 1-2.257 2.59469 11.93033 11.93033 0 0 0-2.00943 2.29764 1.8373 1.8373 0 0 0-.11771.239l.00077-.00137c.00759-.02255.01779-.06375.01235-.03839l-.00491.03668-.01059.07312a1.21074 1.21074 0 0 0-.01922.14838 2.06628 2.06628 0 0 0 .0242.59 1.74108 1.74108 0 0 0 .55914.95748 5.071 5.071 0 0 0 2.50009 1.05045l.02493.004a.98455.98455 0 0 1 .16278.04169 3.70135 3.70135 0 0 1 2.24765 1.97128 3.38629 3.38629 0 0 1 .22971 1.559 3.686 3.686 0 0 1-.135.75735c-.1669.44989.03024.109-.123-.13095-.17077-.23321-.1802-.13968-.06878-.129a2.38039 2.38039 0 0 0 .40188.063 7.67622 7.67622 0 0 0 1.04184-.00448 21.30415 21.30415 0 0 0 2.22492-.276c.37179-.06458.74545-.13623 1.1062-.21625.211-.03772.25214-.08075.68545-.1449a1.22891 1.22891 0 0 1 .47757.04007 1.03507 1.03507 0 0 1 .44217.26 1.00679 1.00679 0 0 1 .27805.53662 1.13922 1.13922 0 0 1-.0549.58872 1.89235 1.89235 0 0 1-.1167.26245 6.27533 6.27533 0 0 1-.84143 1.09979c-.27841.30591-.55979.59418-.844.87631-1.13931 1.12384-2.3045 2.167-3.50253 3.20432l.21362-1.05a10.81664 10.81664 0 0 0 6.32166 5.41016 11.29017 11.29017 0 0 0 4.26114.64581l.53378-.04331c.20963-.01361.4281-.04675.64234-.04153a5.00878 5.00878 0 0 1 1.27389.15555 4.77833 4.77833 0 0 1 2.184 1.23645 4.59791 4.59791 0 0 1 1.22272 2.1358 20.42581 20.42581 0 0 1 .28985 2.33185l.39332 4.58408ZM420.15656 91.3372a5.28212 5.28212 0 0 1-.311 2.46582 7.26978 7.26978 0 0 1-1.24261 2.19623 7.70225 7.70225 0 0 1-1.90751 1.63986 7.17144 7.17144 0 0 1-2.2987.92257c.65-.51947 1.29648-.9725 1.88278-1.49383a13.667 13.667 0 0 0 1.62592-1.6452 11.99022 11.99022 0 0 0 1.29632-1.90427A12.95256 12.95256 0 0 0 420.15656 91.3372Z"></path>
  <path fill="#020202" d="M406.13 71.1721c-1.21787-.21018-2.32364-.511-3.4462-.72217-.55783-.111-1.11453-.192-1.6788-.256a15.05787 15.05787 0 0 0-1.75525-.0354 3.69856 3.69856 0 0 1 1.73913-.671 6.24246 6.24246 0 0 1 1.867.074 7.50549 7.50549 0 0 1 1.74874.584A5.57316 5.57316 0 0 1 406.13 71.1721ZM402.37556 77.13963a1.35912 1.35912 0 0 0 0-2.71661 1.35912 1.35912 0 0 0 0 2.71661Z"></path>
  <path fill="#020202" d="M408.30781,61.03483s-6.81372,6.32284-15.0656,2.69075c0,0-16.87987-10.58467,1.6194-16.47472s18.80971-3.783,25.6119-4.10313c1.79824-.08462,14.1689-1.38319,19.40045,7.30545a13.91664,13.91664,0,0,1,1.3457,10.837c-.26807.982-.56967,2.04651-.85947,2.98291a13.768,13.768,0,0,0-.60505,4.70044,46.31535,46.31535,0,0,1-3.38769,19.22458s-10.90033.01549-15.86646-8.452c0,0,.78333-13.59032-7.84086-5.90613C412.66013,73.83991,406.21725,75.22533,408.30781,61.03483Z"></path>
</svg>
